<?xml version="1.0" encoding="utf-8"?>
<!-- Generator: Adobe Illustrator 15.0.0, SVG Export Plug-In . SVG Version: 6.00 Build 0)  -->
<!DOCTYPE svg PUBLIC "-//W3C//DTD SVG 1.1//EN" "http://www.w3.org/Graphics/SVG/1.1/DTD/svg11.dtd">
<svg version="1.1"
	 id="svg4852" sodipodi:docname="703.svg" inkscape:version="0.45.1" inkscape:export-ydpi="72" sodipodi:version="0.32" inkscape:export-xdpi="72" sodipodi:docbase="D:\04_NMS\Graphic Lib\icon_library" inkscape:export-filename="D:\04_NMS\Graphic Lib\icon_library\703.png" inkscape:output_extension="org.inkscape.output.svg.inkscape" xmlns:sodipodi="http://sodipodi.sourceforge.net/DTD/sodipodi-0.dtd" xmlns:svg="http://www.w3.org/2000/svg" xmlns:dc="http://purl.org/dc/elements/1.1/" xmlns:cc="http://web.resource.org/cc/" xmlns:rdf="http://www.w3.org/1999/02/22-rdf-syntax-ns#" xmlns:inkscape="http://www.inkscape.org/namespaces/inkscape"
	 xmlns="http://www.w3.org/2000/svg" xmlns:xlink="http://www.w3.org/1999/xlink" x="0px" y="0px" width="40px" height="10px"
	 viewBox="0 0 40 10" enable-background="new 0 0 40 10" xml:space="preserve">
<sodipodi:namedview  height="10px" width="40px" id="base" inkscape:window-y="-4" inkscape:window-x="-4" inkscape:current-layer="svg4852" inkscape:object-nodes="false" inkscape:window-width="1024" inkscape:object-points="false" inkscape:showpageshadow="false" inkscape:object-bbox="false" inkscape:pageopacity="0.0" inkscape:window-height="719" inkscape:pageshadow="2" showguides="true" showgrid="false" showborder="true" borderlayer="false" pagecolor="#ffffff" inkscape:zoom="8" inkscape:cx="13.724432" inkscape:cy="26.039696" objecttolerance="10.0" bordercolor="#666666" guidetolerance="10.0" gridtolerance="10.0" borderopacity="1.0">
	</sodipodi:namedview>
<radialGradient id="path4924_1_" cx="2459.585" cy="-2672.1255" r="118.2547" gradientTransform="matrix(0.1492 0.0017 0.0021 -0.1802 -325.3369 -484.277)" gradientUnits="userSpaceOnUse">
	<stop  offset="0" style="stop-color:#857C9E"/>
	<stop  offset="1" style="stop-color:#AAADC7"/>
</radialGradient>
<path id="path4924" fill="url(#path4924_1_)" d="M28.576,4.079L3.442,2.065l10.017-1.687l22.604,1.444L28.576,4.079L28.576,4.079z"
	/>
<radialGradient id="path4926_1_" cx="2405.0898" cy="-6849.6279" r="102.4434" gradientTransform="matrix(0.1492 0.0017 7.555214e-004 -0.0653 -325.83 -441.6866)" gradientUnits="userSpaceOnUse">
	<stop  offset="0" style="stop-color:#C9CADA"/>
	<stop  offset="0.6196" style="stop-color:#A7A3BC"/>
	<stop  offset="1" style="stop-color:#857C9E"/>
</radialGradient>
<path id="path4926" sodipodi:nodetypes="ccccc" fill="url(#path4926_1_)" d="M28.636,9.666L3.741,7.761L3.438,2.426l25.256,0.797
	L28.636,9.666z"/>
<radialGradient id="path4928_1_" cx="2438.2236" cy="-6587.834" r="59.9942" gradientTransform="matrix(0.1492 0.0024 0.0013 -0.0678 -325.5658 -443.2495)" gradientUnits="userSpaceOnUse">
	<stop  offset="0" style="stop-color:#C9CADA"/>
	<stop  offset="0.3608" style="stop-color:#A7A3BC"/>
	<stop  offset="1" style="stop-color:#857C9E"/>
</radialGradient>
<path id="path4928" sodipodi:nodetypes="ccccc" fill="url(#path4928_1_)" d="M35.993,7.931l-7.482,1.733l0.162-6.424l7.391-1.435
	L35.993,7.931z"/>
<linearGradient id="path4930_1_" gradientUnits="userSpaceOnUse" x1="2324.0762" y1="-3631.0562" x2="2327.4988" y2="-3586.3186" gradientTransform="matrix(0.1492 0.0017 0.0015 -0.1286 -325.5576 -465.2412)">
	<stop  offset="0" style="stop-color:#857C9E"/>
	<stop  offset="1" style="stop-color:#AAADC7"/>
</linearGradient>
<path id="path4930" sodipodi:nodetypes="ccccc" fill="url(#path4930_1_)" d="M3.438,2.451l0.004-0.386l25.262,1.169l0.003,0.521
	L3.438,2.451z"/>
<linearGradient id="path4932_1_" gradientUnits="userSpaceOnUse" x1="2440.6191" y1="-3839.7007" x2="2429.6567" y2="-3872.937" gradientTransform="matrix(0.1492 0.0017 0.0014 -0.1193 -325.5958 -461.8856)">
	<stop  offset="0" style="stop-color:#AAADC7"/>
	<stop  offset="1" style="stop-color:#857C9E"/>
</linearGradient>
<path id="path4932" sodipodi:nodetypes="ccccc" fill="url(#path4932_1_)" d="M35.766,1.819l0.298,0.003l-7.355,1.885l-0.016-0.539
	L35.766,1.819z"/>
<g id="g2745" transform="matrix(3.9839733,0,0,2.953301,-1877.5744,-878.8137)">
	<path id="path5705" fill="#44403F" d="M472.809,298.466c-0.035,1.251-0.017,0.933-0.018,0.952c0.76,0.089,1.519,0.179,2.279,0.268
		l0.028-1.038L472.809,298.466z"/>
</g>
<path id="path5753" sodipodi:nodetypes="ccccc" fill="#A8A1C4" d="M8.569,6.247L8.543,7.401L7.795,7.273l0.026-1.154L8.569,6.247z"
	/>
<linearGradient id="path5755_4_" gradientUnits="userSpaceOnUse" x1="2012.8496" y1="-2770.4072" x2="2005.8531" y2="-2761.9492" gradientTransform="matrix(0.2564 0.0097 0.0056 -0.1491 -492.4145 -425.3051)">
	<stop  offset="0" style="stop-color:#826592"/>
	<stop  offset="0.4588" style="stop-color:#6A4B7D"/>
	<stop  offset="1" style="stop-color:#513167"/>
</linearGradient>
<path id="path5755" sodipodi:nodetypes="ccccc" fill="url(#path5755_4_)" d="M8.078,6.138L8.032,7.32l-1.79-0.156l0.044-1.173
	L8.078,6.138z"/>
<path id="path5753_1_" sodipodi:nodetypes="ccccc" fill="#A8A1C4" d="M10.573,6.383l-0.027,1.154L9.799,7.409l0.025-1.155
	L10.573,6.383z"/>
<linearGradient id="path5755_5_" gradientUnits="userSpaceOnUse" x1="2020.6777" y1="-2770.8135" x2="2013.6732" y2="-2762.3455" gradientTransform="matrix(0.2564 0.0097 0.0056 -0.1491 -492.4145 -425.3051)">
	<stop  offset="0" style="stop-color:#826592"/>
	<stop  offset="0.4588" style="stop-color:#6A4B7D"/>
	<stop  offset="1" style="stop-color:#513167"/>
</linearGradient>
<path id="path5755_1_" sodipodi:nodetypes="ccccc" fill="url(#path5755_5_)" d="M10.081,6.274l-0.044,1.184L8.245,7.299l0.044-1.173
	L10.081,6.274z"/>
<path id="path5753_3_" sodipodi:nodetypes="ccccc" fill="#A8A1C4" d="M12.575,6.518l-0.027,1.156l-0.747-0.13l0.027-1.154
	L12.575,6.518z"/>
<linearGradient id="path5755_6_" gradientUnits="userSpaceOnUse" x1="2028.4961" y1="-2771.2197" x2="2021.4929" y2="-2762.7534" gradientTransform="matrix(0.2564 0.0097 0.0056 -0.1491 -492.4145 -425.3051)">
	<stop  offset="0" style="stop-color:#826592"/>
	<stop  offset="0.4588" style="stop-color:#6A4B7D"/>
	<stop  offset="1" style="stop-color:#513167"/>
</linearGradient>
<path id="path5755_3_" sodipodi:nodetypes="ccccc" fill="url(#path5755_6_)" d="M12.082,6.409l-0.045,1.185l-1.791-0.158
	l0.044-1.173L12.082,6.409z"/>
<path id="path5753_2_" sodipodi:nodetypes="ccccc" fill="#A8A1C4" d="M14.579,6.654l-0.026,1.154L13.805,7.68l0.025-1.154
	L14.579,6.654z"/>
<linearGradient id="path5755_7_" gradientUnits="userSpaceOnUse" x1="2036.3164" y1="-2771.6182" x2="2029.3159" y2="-2763.155" gradientTransform="matrix(0.2564 0.0097 0.0056 -0.1491 -492.4145 -425.3051)">
	<stop  offset="0" style="stop-color:#826592"/>
	<stop  offset="0.4588" style="stop-color:#6A4B7D"/>
	<stop  offset="1" style="stop-color:#513167"/>
</linearGradient>
<path id="path5755_2_" sodipodi:nodetypes="ccccc" fill="url(#path5755_7_)" d="M14.086,6.545l-0.045,1.184l-1.791-0.156
	l0.044-1.174L14.086,6.545z"/>
<path id="path5765" sodipodi:nodetypes="ccccc" fill="#A8A1C4" d="M18.831,4.589l-0.003,1.838l-0.819-0.168l0.003-1.84L18.831,4.589
	z"/>
<path id="path5769" sodipodi:nodetypes="ccccc" fill="#A8A1C4" d="M26.797,7.472l-0.006,1.393l-0.437-0.126l0.006-1.393
	L26.797,7.472z"/>
<linearGradient id="path5781_6_" gradientUnits="userSpaceOnUse" x1="2016.7949" y1="-2771.9731" x2="2008.3785" y2="-2761.7983" gradientTransform="matrix(0.233 0.0027 0.0023 -0.1979 -445.6083 -547.8132)">
	<stop  offset="0" style="stop-color:#826592"/>
	<stop  offset="0.4588" style="stop-color:#6A4B7D"/>
	<stop  offset="1" style="stop-color:#513167"/>
</linearGradient>
<path id="path5781" sodipodi:nodetypes="ccccc" fill="url(#path5781_6_)" d="M18.004,4.436l-0.021,1.887l-1.959-0.164l0.021-1.873
	L18.004,4.436z"/>
<path id="path5765_1_" sodipodi:nodetypes="ccccc" fill="#A8A1C4" d="M21.307,4.725l-0.005,1.84l-0.816-0.17l0.002-1.839
	L21.307,4.725z"/>
<linearGradient id="path5781_7_" gradientUnits="userSpaceOnUse" x1="2027.4287" y1="-2772.522" x2="2019.0111" y2="-2762.3457" gradientTransform="matrix(0.233 0.0027 0.0023 -0.1979 -445.6083 -547.8132)">
	<stop  offset="0" style="stop-color:#826592"/>
	<stop  offset="0.4588" style="stop-color:#6A4B7D"/>
	<stop  offset="1" style="stop-color:#513167"/>
</linearGradient>
<path id="path5781_1_" sodipodi:nodetypes="ccccc" fill="url(#path5781_7_)" d="M20.481,4.572L20.46,6.459l-1.962-0.163l0.022-1.873
	L20.481,4.572z"/>
<path id="path5765_2_" sodipodi:nodetypes="ccccc" fill="#A8A1C4" d="M23.781,4.862L23.78,6.701l-0.822-0.168l0.007-1.841
	L23.781,4.862z"/>
<linearGradient id="path5781_8_" gradientUnits="userSpaceOnUse" x1="2038.0615" y1="-2773.0713" x2="2029.6414" y2="-2762.8921" gradientTransform="matrix(0.233 0.0027 0.0023 -0.1979 -445.6083 -547.8132)">
	<stop  offset="0" style="stop-color:#826592"/>
	<stop  offset="0.4588" style="stop-color:#6A4B7D"/>
	<stop  offset="1" style="stop-color:#513167"/>
</linearGradient>
<path id="path5781_2_" sodipodi:nodetypes="ccccc" fill="url(#path5781_8_)" d="M22.956,4.709l-0.021,1.889l-1.959-0.165l0.02-1.872
	L22.956,4.709z"/>
<path id="path5765_5_" sodipodi:nodetypes="ccccc" fill="#A8A1C4" d="M18.898,6.579L18.895,8.42l-0.819-0.168L18.08,6.41
	L18.898,6.579z"/>
<linearGradient id="path5781_9_" gradientUnits="userSpaceOnUse" x1="2017.1836" y1="-2782.0298" x2="2008.7651" y2="-2771.8525" gradientTransform="matrix(0.233 0.0027 0.0023 -0.1979 -445.6083 -547.8132)">
	<stop  offset="0" style="stop-color:#826592"/>
	<stop  offset="0.4588" style="stop-color:#6A4B7D"/>
	<stop  offset="1" style="stop-color:#513167"/>
</linearGradient>
<path id="path5781_5_" sodipodi:nodetypes="ccccc" fill="url(#path5781_9_)" d="M18.071,6.426l-0.021,1.888L16.09,8.151l0.022-1.874
	L18.071,6.426z"/>
<path id="path5765_4_" sodipodi:nodetypes="ccccc" fill="#A8A1C4" d="M21.374,6.716l-0.002,1.841L20.55,8.388l0.005-1.841
	L21.374,6.716z"/>
<linearGradient id="path5781_10_" gradientUnits="userSpaceOnUse" x1="2027.8174" y1="-2782.5732" x2="2019.3979" y2="-2772.395" gradientTransform="matrix(0.233 0.0027 0.0023 -0.1979 -445.6083 -547.8132)">
	<stop  offset="0" style="stop-color:#826592"/>
	<stop  offset="0.4588" style="stop-color:#6A4B7D"/>
	<stop  offset="1" style="stop-color:#513167"/>
</linearGradient>
<path id="path5781_4_" sodipodi:nodetypes="ccccc" fill="url(#path5781_10_)" d="M20.549,6.563l-0.023,1.889l-1.959-0.164
	l0.021-1.874L20.549,6.563z"/>
<path id="path5765_3_" sodipodi:nodetypes="ccccc" fill="#A8A1C4" d="M23.848,6.853v1.841l-0.82-0.169l0.002-1.841L23.848,6.853z"/>
<linearGradient id="path5781_11_" gradientUnits="userSpaceOnUse" x1="2038.4473" y1="-2783.123" x2="2030.0271" y2="-2772.9438" gradientTransform="matrix(0.233 0.0027 0.0023 -0.1979 -445.6083 -547.8132)">
	<stop  offset="0" style="stop-color:#826592"/>
	<stop  offset="0.4588" style="stop-color:#6A4B7D"/>
	<stop  offset="1" style="stop-color:#513167"/>
</linearGradient>
<path id="path5781_3_" sodipodi:nodetypes="ccccc" fill="url(#path5781_11_)" d="M23.024,6.699l-0.022,1.889L21.04,8.424
	l0.022-1.873L23.024,6.699z"/>
<linearGradient id="path5785_1_" gradientUnits="userSpaceOnUse" x1="2019.4326" y1="-2779.1772" x2="2012.4292" y2="-2770.7107" gradientTransform="matrix(0.1492 0.0017 0.0021 -0.1802 -269.2418 -495.7213)">
	<stop  offset="0" style="stop-color:#826592"/>
	<stop  offset="0.4588" style="stop-color:#6A4B7D"/>
	<stop  offset="1" style="stop-color:#513167"/>
</linearGradient>
<path id="path5785" sodipodi:nodetypes="ccccc" fill="url(#path5785_1_)" d="M26.279,7.265l-0.017,1.431l-1.044-0.12l0.017-1.418
	L26.279,7.265z"/>
</svg>
