<?xml version="1.0" encoding="utf-8"?>
<!-- Generator: Adobe Illustrator 15.0.0, SVG Export Plug-In . SVG Version: 6.00 Build 0)  -->
<!DOCTYPE svg PUBLIC "-//W3C//DTD SVG 1.1//EN" "http://www.w3.org/Graphics/SVG/1.1/DTD/svg11.dtd">
<svg version="1.1"
	 id="svg4852" xmlns:rdf="http://www.w3.org/1999/02/22-rdf-syntax-ns#" xmlns:inkscape="http://www.inkscape.org/namespaces/inkscape" xmlns:cc="http://web.resource.org/cc/" xmlns:dc="http://purl.org/dc/elements/1.1/" xmlns:svg="http://www.w3.org/2000/svg" xmlns:sodipodi="http://sodipodi.sourceforge.net/DTD/sodipodi-0.dtd" inkscape:output_extension="org.inkscape.output.svg.inkscape" inkscape:export-filename="D:\04_NMS\Graphic Lib\icon_library\703.png" sodipodi:docname="703.svg" sodipodi:docbase="D:\04_NMS\Graphic Lib\icon_library" inkscape:export-xdpi="72" sodipodi:version="0.32" inkscape:version="0.45.1" inkscape:export-ydpi="72"
	 xmlns="http://www.w3.org/2000/svg" xmlns:xlink="http://www.w3.org/1999/xlink" x="0px" y="0px" width="40px" height="19.625px"
	 viewBox="0 0 40 19.625" enable-background="new 0 0 40 19.625" xml:space="preserve">
<sodipodi:namedview  height="10px" width="40px" id="base" showborder="true" showguides="true" showgrid="false" borderlayer="false" inkscape:zoom="8" gridtolerance="10.0" guidetolerance="10.0" pagecolor="#ffffff" bordercolor="#666666" inkscape:cy="26.039696" borderopacity="1.0" inkscape:cx="13.724432" objecttolerance="10.0" inkscape:window-width="1024" inkscape:pageopacity="0.0" inkscape:current-layer="svg4852" inkscape:window-x="-4" inkscape:showpageshadow="false" inkscape:object-bbox="false" inkscape:object-points="false" inkscape:pageshadow="2" inkscape:window-height="719" inkscape:window-y="-4" inkscape:object-nodes="false">
	</sodipodi:namedview>
<radialGradient id="path4924_1_" cx="3127.209" cy="-2137.6685" r="161.5348" gradientTransform="matrix(0.1492 0 0 -0.1803 -426.6809 -383.7881)" gradientUnits="userSpaceOnUse">
	<stop  offset="0" style="stop-color:#857C9E"/>
	<stop  offset="1" style="stop-color:#AAADC7"/>
</radialGradient>
<path id="path4924" fill="url(#path4924_1_)" d="M32.478,5.041L0.248,2.026l9.997-1.802l29.693,1.622L32.478,5.041L32.478,5.041z"/>
<radialGradient id="path4926_1_" cx="3071.2197" cy="-5345.6074" r="249.7488" gradientTransform="matrix(0.1492 0 0 -0.0653 -426.6809 -329.6971)" gradientUnits="userSpaceOnUse">
	<stop  offset="0" style="stop-color:#C9CADA"/>
	<stop  offset="0.6196" style="stop-color:#A7A3BC"/>
	<stop  offset="1" style="stop-color:#857C9E"/>
</radialGradient>
<path id="path4926" sodipodi:nodetypes="ccccc" fill="url(#path4926_1_)" d="M32.602,19.342L0.47,15.873L0.248,2.387l32.338,1.796
	L32.602,19.342z"/>
<radialGradient id="path4928_1_" cx="3100.2852" cy="-5121.1724" r="124.3465" gradientTransform="matrix(0.1492 6.276939e-004 5.187465e-004 -0.0678 -426.3829 -331.5003)" gradientUnits="userSpaceOnUse">
	<stop  offset="0" style="stop-color:#C9CADA"/>
	<stop  offset="0.3608" style="stop-color:#A7A3BC"/>
	<stop  offset="1" style="stop-color:#857C9E"/>
</radialGradient>
<path id="path4928" sodipodi:nodetypes="ccccc" fill="url(#path4928_1_)" d="M39.938,15.539l-7.461,3.803L32.564,4.2l7.374-2.371
	V15.539z"/>
<linearGradient id="path4930_1_" gradientUnits="userSpaceOnUse" x1="2968.8457" y1="-2832.9087" x2="2970.4641" y2="-2811.7556" gradientTransform="matrix(0.1492 0 0 -0.1286 -426.6809 -359.5843)">
	<stop  offset="0" style="stop-color:#857C9E"/>
	<stop  offset="1" style="stop-color:#AAADC7"/>
</linearGradient>
<path id="path4930" sodipodi:nodetypes="ccccc" fill="url(#path4930_1_)" d="M0.248,2.412V2.026l32.348,2.168l0.01,0.521
	L0.248,2.412z"/>
<linearGradient id="path4932_1_" gradientUnits="userSpaceOnUse" x1="3109.6279" y1="-2981.3535" x2="3096.2766" y2="-3021.833" gradientTransform="matrix(0.1492 0 0 -0.1193 -426.6809 -355.3016)">
	<stop  offset="0" style="stop-color:#AAADC7"/>
	<stop  offset="1" style="stop-color:#857C9E"/>
</linearGradient>
<path id="path4932" sodipodi:nodetypes="ccccc" fill="url(#path4932_1_)" d="M39.641,1.846h0.298l-7.333,2.821l-0.021-0.538
	L39.641,1.846z"/>
<g id="g2745_1_" transform="matrix(3.9839733,0,0,2.953301,-1877.5744,-878.8137)">
	
		<linearGradient id="path5705_2_" gradientUnits="userSpaceOnUse" x1="1181.5923" y1="-485.5511" x2="1386.5367" y2="-496.7299" gradientTransform="matrix(-0.1492 0 0 0.1803 655.4501 388.9638)">
		<stop  offset="0" style="stop-color:#A8A1C4;stop-opacity:0"/>
		<stop  offset="0.5" style="stop-color:#A591C2"/>
		<stop  offset="1" style="stop-color:#6B4F7F;stop-opacity:0"/>
	</linearGradient>
	<path id="path5705_1_" fill="url(#path5705_2_)" d="M479.283,301.713c0-0.055,0-0.055,0-0.111c-2.631-0.222-5.185-0.88-7.816-1.103
		v0.166L479.283,301.713z"/>
	
		<linearGradient id="path5707_2_" gradientUnits="userSpaceOnUse" x1="1232.2008" y1="-488.2121" x2="1036.7268" y2="-480.6009" gradientTransform="matrix(-0.1492 0 0 0.1803 655.4393 388.8339)">
		<stop  offset="0" style="stop-color:#72698B;stop-opacity:0"/>
		<stop  offset="0.5" style="stop-color:#503D75"/>
		<stop  offset="1" style="stop-color:#A9ADC7;stop-opacity:0"/>
	</linearGradient>
	<path id="path5707_1_" fill="url(#path5707_2_)" d="M479.271,301.595c0-0.055,0-0.055,0-0.111
		c-2.631-0.223-5.185-0.714-7.816-0.936l0,0L479.271,301.595z"/>
</g>
<path id="path5753" sodipodi:nodetypes="ccccc" fill="#A8A1C4" d="M6.645,4.024l0.01,1.394L6.217,5.296l-0.01-1.394L6.645,4.024z"/>
<linearGradient id="path5755_2_" gradientUnits="userSpaceOnUse" x1="2651.8486" y1="-2233.4766" x2="2644.8486" y2="-2225.0144" gradientTransform="matrix(0.1492 0 0 -0.1803 -389.3304 -397.2539)">
	<stop  offset="0" style="stop-color:#826592"/>
	<stop  offset="0.4588" style="stop-color:#6A4B7D"/>
	<stop  offset="1" style="stop-color:#513167"/>
</linearGradient>
<path id="path5755" sodipodi:nodetypes="ccccc" fill="url(#path5755_2_)" d="M6.356,3.915v1.43L5.312,5.237V3.819L6.356,3.915z"/>
<path id="path5761" sodipodi:nodetypes="ccccc" fill="#A8A1C4" d="M14.198,4.575l0.01,1.394L13.77,5.848l-0.01-1.394L14.198,4.575z"
	/>
<path id="path5765" sodipodi:nodetypes="ccccc" fill="#A8A1C4" d="M16.977,4.849l0.01,1.394l-0.438-0.121l-0.01-1.394L16.977,4.849z
	"/>
<path id="path5769" sodipodi:nodetypes="ccccc" fill="#A8A1C4" d="M25.485,5.488l0.01,1.393L25.058,6.76l-0.011-1.393L25.485,5.488z
	"/>
<linearGradient id="path5777_2_" gradientUnits="userSpaceOnUse" x1="2651.8486" y1="-2233.4766" x2="2644.8486" y2="-2225.0144" gradientTransform="matrix(0.1492 0 0 -0.1803 -381.9188 -396.7266)">
	<stop  offset="0" style="stop-color:#826592"/>
	<stop  offset="0.4588" style="stop-color:#6A4B7D"/>
	<stop  offset="1" style="stop-color:#513167"/>
</linearGradient>
<path id="path5777" sodipodi:nodetypes="ccccc" fill="url(#path5777_2_)" d="M13.768,4.442v1.43l-1.044-0.107V4.347L13.768,4.442z"
	/>
<linearGradient id="path5781_2_" gradientUnits="userSpaceOnUse" x1="2651.8467" y1="-2233.4834" x2="2644.8455" y2="-2225.0195" gradientTransform="matrix(0.1492 0 0 -0.1803 -379.1502 -396.4297)">
	<stop  offset="0" style="stop-color:#826592"/>
	<stop  offset="0.4588" style="stop-color:#6A4B7D"/>
	<stop  offset="1" style="stop-color:#513167"/>
</linearGradient>
<path id="path5781" sodipodi:nodetypes="ccccc" fill="url(#path5781_2_)" d="M16.536,4.74v1.43l-1.044-0.107V4.644L16.536,4.74z"/>
<linearGradient id="path5785_2_" gradientUnits="userSpaceOnUse" x1="2651.8516" y1="-2233.4829" x2="2644.8503" y2="-2225.019" gradientTransform="matrix(0.1492 0 0 -0.1803 -370.722 -395.8809)">
	<stop  offset="0" style="stop-color:#826592"/>
	<stop  offset="0.4588" style="stop-color:#6A4B7D"/>
	<stop  offset="1" style="stop-color:#513167"/>
</linearGradient>
<path id="path5785" sodipodi:nodetypes="ccccc" fill="url(#path5785_2_)" d="M24.965,5.288v1.43L23.92,6.61V5.192L24.965,5.288z"/>
<path id="path5753_1_" sodipodi:nodetypes="ccccc" fill="#A8A1C4" d="M6.645,12.245l0.01,1.394l-0.438-0.121l-0.01-1.394
	L6.645,12.245z"/>
<linearGradient id="path5755_3_" gradientUnits="userSpaceOnUse" x1="2651.8486" y1="-2279.0874" x2="2644.8489" y2="-2270.6252" gradientTransform="matrix(0.1492 0 0 -0.1803 -389.3304 -397.2539)">
	<stop  offset="0" style="stop-color:#826592"/>
	<stop  offset="0.4588" style="stop-color:#6A4B7D"/>
	<stop  offset="1" style="stop-color:#513167"/>
</linearGradient>
<path id="path5755_1_" sodipodi:nodetypes="ccccc" fill="url(#path5755_3_)" d="M6.356,12.136v1.431l-1.044-0.107v-1.418
	L6.356,12.136z"/>
<path id="path5761_1_" sodipodi:nodetypes="ccccc" fill="#A8A1C4" d="M14.198,12.796l0.01,1.395l-0.438-0.121l-0.01-1.395
	L14.198,12.796z"/>
<path id="path5765_1_" sodipodi:nodetypes="ccccc" fill="#A8A1C4" d="M16.977,13.07l0.01,1.394l-0.438-0.121l-0.01-1.394
	L16.977,13.07z"/>
<path id="path5769_1_" sodipodi:nodetypes="ccccc" fill="#A8A1C4" d="M25.485,13.709l0.01,1.394l-0.438-0.121l-0.011-1.394
	L25.485,13.709z"/>
<linearGradient id="path5777_3_" gradientUnits="userSpaceOnUse" x1="2651.8486" y1="-2279.0884" x2="2644.8486" y2="-2270.6262" gradientTransform="matrix(0.1492 0 0 -0.1803 -381.9188 -396.7266)">
	<stop  offset="0" style="stop-color:#826592"/>
	<stop  offset="0.4588" style="stop-color:#6A4B7D"/>
	<stop  offset="1" style="stop-color:#513167"/>
</linearGradient>
<path id="path5777_1_" sodipodi:nodetypes="ccccc" fill="url(#path5777_3_)" d="M13.768,12.664v1.43l-1.044-0.107v-1.418
	L13.768,12.664z"/>
<linearGradient id="path5781_3_" gradientUnits="userSpaceOnUse" x1="2651.8467" y1="-2279.0942" x2="2644.8442" y2="-2270.6289" gradientTransform="matrix(0.1492 0 0 -0.1803 -379.1502 -396.4297)">
	<stop  offset="0" style="stop-color:#826592"/>
	<stop  offset="0.4588" style="stop-color:#6A4B7D"/>
	<stop  offset="1" style="stop-color:#513167"/>
</linearGradient>
<path id="path5781_1_" sodipodi:nodetypes="ccccc" fill="url(#path5781_3_)" d="M16.536,12.961v1.431l-1.044-0.107v-1.419
	L16.536,12.961z"/>
<linearGradient id="path5785_3_" gradientUnits="userSpaceOnUse" x1="2651.8506" y1="-2279.0942" x2="2644.8494" y2="-2270.6304" gradientTransform="matrix(0.1492 0 0 -0.1803 -370.722 -395.8809)">
	<stop  offset="0" style="stop-color:#826592"/>
	<stop  offset="0.4588" style="stop-color:#6A4B7D"/>
	<stop  offset="1" style="stop-color:#513167"/>
</linearGradient>
<path id="path5785_1_" sodipodi:nodetypes="ccccc" fill="url(#path5785_3_)" d="M24.965,13.51v1.43l-1.045-0.107v-1.418
	L24.965,13.51z"/>
</svg>
