<?xml version="1.0" encoding="UTF-8" standalone="no"?>
<!-- Creator: CorelDRAW -->
<svg
   xmlns:dc="http://purl.org/dc/elements/1.1/"
   xmlns:cc="http://web.resource.org/cc/"
   xmlns:rdf="http://www.w3.org/1999/02/22-rdf-syntax-ns#"
   xmlns:svg="http://www.w3.org/2000/svg"
   xmlns="http://www.w3.org/2000/svg"
   xmlns:xlink="http://www.w3.org/1999/xlink"
   xmlns:sodipodi="http://sodipodi.sourceforge.net/DTD/sodipodi-0.dtd"
   xmlns:inkscape="http://www.inkscape.org/namespaces/inkscape"
   xml:space="preserve"
   width="40"
   height="31.25"
   style="shape-rendering:geometricPrecision; text-rendering:geometricPrecision; image-rendering:optimizeQuality; fill-rule:evenodd"
   viewBox="0 0 1260 1260"
   id="svg4852"
   sodipodi:version="0.32"
   inkscape:version="0.45.1"
   sodipodi:docname="715.svg"
   inkscape:output_extension="org.inkscape.output.svg.inkscape"
   sodipodi:docbase="D:\hz05154_org_view\Orange\prj\res\topo\ut"
   version="1.0"><metadata
   id="metadata5015"><rdf:RDF><cc:Work
       rdf:about=""><dc:format>image/svg+xml</dc:format><dc:type
         rdf:resource="http://purl.org/dc/dcmitype/StillImage" /></cc:Work></rdf:RDF></metadata><sodipodi:namedview
   inkscape:window-height="719"
   inkscape:window-width="1024"
   inkscape:pageshadow="2"
   inkscape:pageopacity="0.0"
   guidetolerance="10.0"
   gridtolerance="10.0"
   objecttolerance="10.0"
   borderopacity="1.0"
   bordercolor="#666666"
   pagecolor="#ffffff"
   id="base"
   inkscape:zoom="2.8284271"
   inkscape:cx="35.492065"
   inkscape:cy="26.039696"
   inkscape:window-x="66"
   inkscape:window-y="87"
   inkscape:current-layer="svg4852"
   width="32pt"
   height="25pt"
   showborder="true"
   units="pt"
   borderlayer="false" />
 <defs
   id="defs4854"><linearGradient
     id="id4"
     gradientUnits="userSpaceOnUse"
     x1="532"
     y1="608"
     x2="524"
     y2="601">
   <stop
   offset="0"
   style="stop-color:#826592"
   id="stop4867" />
   <stop
   offset="0.458824"
   style="stop-color:#6A4B7D"
   id="stop4869" />
   <stop
   offset="1"
   style="stop-color:#513167"
   id="stop4871" />
  </linearGradient><linearGradient
     id="id10"
     gradientUnits="userSpaceOnUse"
     href="#id4"
     x1="589"
     y1="568"
     x2="581"
     y2="560"
     gradientTransform="translate(266.4,1.0391609)">
  </linearGradient><linearGradient
     id="id11"
     gradientUnits="userSpaceOnUse"
     href="#id4"
     x1="589"
     y1="637"
     x2="581"
     y2="629"
     gradientTransform="translate(226.69667,60.426084)">
  </linearGradient><linearGradient
     id="id24"
     gradientUnits="userSpaceOnUse"
     x1="594"
     y1="573"
     x2="600"
     y2="529">
   <stop
   offset="0"
   style="stop-color:#857C9E"
   id="stop4893" />
   <stop
   offset="1"
   style="stop-color:#AAADC7"
   id="stop4895" />
  </linearGradient><radialGradient
     id="id25"
     gradientUnits="userSpaceOnUse"
     cx="713"
     cy="561"
     r="25"
     fx="713"
     fy="561">
   <stop
   offset="0"
   style="stop-color:#AAADC7"
   id="stop4898" />
   <stop
   offset="1"
   style="stop-color:#857C9E"
   id="stop4900" />
  </radialGradient><radialGradient
     id="id26"
     gradientUnits="userSpaceOnUse"
     cx="755"
     cy="540"
     r="133"
     fx="755"
     fy="540">
   <stop
   offset="0"
   style="stop-color:#857C9E"
   id="stop4903" />
   <stop
   offset="1"
   style="stop-color:#AAADC7"
   id="stop4905" />
  </radialGradient><radialGradient
     id="id27"
     gradientUnits="userSpaceOnUse"
     cx="704"
     cy="659"
     r="60"
     fx="704"
     fy="659">
   <stop
   offset="0"
   style="stop-color:#C9CADA"
   id="stop4908" />
   <stop
   offset="0.360784"
   style="stop-color:#A7A3BC"
   id="stop4910" />
   <stop
   offset="1"
   style="stop-color:#857C9E"
   id="stop4912" />
  </radialGradient><radialGradient
     id="id28"
     gradientUnits="userSpaceOnUse"
     cx="699"
     cy="659"
     r="109"
     fx="699"
     fy="659">
   <stop
   offset="0"
   style="stop-color:#C9CADA"
   id="stop4915" />
   <stop
   offset="0.619608"
   style="stop-color:#A7A3BC"
   id="stop4917" />
   <stop
   offset="1"
   style="stop-color:#857C9E"
   id="stop4919" />
  </radialGradient><linearGradient
     y2="584"
     x2="579"
     y1="628"
     x1="573"
     gradientUnits="userSpaceOnUse"
     id="linearGradient5493">
   <stop
   id="stop3314"
   style="stop-color:#72698b;stop-opacity:0;"
   offset="0" /><stop
   offset="0.5"
   style="stop-color:#503d75;stop-opacity:1;"
   id="stop4473" />
   <stop
   id="stop3316"
   style="stop-color:#a9adc7;stop-opacity:0;"
   offset="1" />
  </linearGradient><linearGradient
     y2="646"
     x2="504"
     y1="653"
     x1="511"
     gradientUnits="userSpaceOnUse"
     id="linearGradient5465">
   <stop
   id="stop3291"
   style="stop-color:#826592"
   offset="0" />
   <stop
   id="stop3293"
   style="stop-color:#6A4B7D"
   offset="0.458824" />
   <stop
   id="stop3295"
   style="stop-color:#513167"
   offset="1" />
  </linearGradient><linearGradient
     y2="667"
     x2="673"
     y1="667"
     x1="479"
     gradientUnits="userSpaceOnUse"
     id="linearGradient5458">
   <stop
   id="stop3285"
   style="stop-color:#a8a1c4;stop-opacity:0;"
   offset="0" /><stop
   offset="0.5"
   style="stop-color:#a591c2;stop-opacity:1;"
   id="stop4483" />
   <stop
   id="stop3287"
   style="stop-color:#6b4f7f;stop-opacity:0;"
   offset="1" />
  </linearGradient><radialGradient
     inkscape:collect="always"
     xlink:href="#id26"
     id="radialGradient2913"
     gradientUnits="userSpaceOnUse"
     cx="755"
     cy="540"
     fx="755"
     fy="540"
     r="133" /><radialGradient
     inkscape:collect="always"
     xlink:href="#id28"
     id="radialGradient2915"
     gradientUnits="userSpaceOnUse"
     cx="699"
     cy="659"
     fx="699"
     fy="659"
     r="109" /><radialGradient
     inkscape:collect="always"
     xlink:href="#id27"
     id="radialGradient2917"
     gradientUnits="userSpaceOnUse"
     cx="704"
     cy="659"
     fx="704"
     fy="659"
     r="60" /><linearGradient
     inkscape:collect="always"
     xlink:href="#id24"
     id="linearGradient2919"
     gradientUnits="userSpaceOnUse"
     x1="594"
     y1="573"
     x2="597.5"
     y2="527.25073" /><linearGradient
     inkscape:collect="always"
     xlink:href="#id25"
     id="linearGradient2921"
     gradientUnits="userSpaceOnUse"
     x1="730.5"
     y1="529.96667"
     x2="719.53766"
     y2="563.203" /><linearGradient
     inkscape:collect="always"
     xlink:href="#linearGradient5458"
     id="linearGradient2923"
     gradientUnits="userSpaceOnUse"
     gradientTransform="translate(41.095689,-61.127374)"
     x1="462.74655"
     y1="698.98816"
     x2="651.06378"
     y2="709.26001" /><linearGradient
     inkscape:collect="always"
     xlink:href="#linearGradient5465"
     id="linearGradient2925"
     gradientUnits="userSpaceOnUse"
     gradientTransform="translate(250.14477,-3.5102526)"
     x1="279.62234"
     y1="637.11151"
     x2="272.62234"
     y2="628.64911" /><linearGradient
     inkscape:collect="always"
     xlink:href="#linearGradient5493"
     id="linearGradient2927"
     gradientUnits="userSpaceOnUse"
     gradientTransform="matrix(0.9999954,3.0215367e-3,-3.0215367e-3,0.9999954,42.275762,-60.16162)"
     x1="648.09625"
     y1="705.98822"
     x2="468.3215"
     y2="698.98822" /><linearGradient
     inkscape:collect="always"
     xlink:href="#id4"
     id="linearGradient2929"
     gradientUnits="userSpaceOnUse"
     gradientTransform="translate(250.26386,-26.461878)"
     x1="279.62234"
     y1="637.11151"
     x2="272.62234"
     y2="628.64911" /><linearGradient
     inkscape:collect="always"
     xlink:href="#linearGradient5458"
     id="linearGradient2931"
     gradientUnits="userSpaceOnUse"
     gradientTransform="translate(39.13974,-82.677018)"
     x1="462.74655"
     y1="698.98816"
     x2="651.06378"
     y2="709.26001" /><linearGradient
     inkscape:collect="always"
     xlink:href="#linearGradient5493"
     id="linearGradient2933"
     gradientUnits="userSpaceOnUse"
     gradientTransform="translate(38.18411,-80.037341)"
     x1="648.09625"
     y1="705.98822"
     x2="468.3215"
     y2="698.98822" /><linearGradient
     inkscape:collect="always"
     xlink:href="#linearGradient5458"
     id="linearGradient2935"
     gradientUnits="userSpaceOnUse"
     gradientTransform="translate(40.788978,-108.24021)"
     x1="462.74655"
     y1="698.98816"
     x2="651.06378"
     y2="709.26001" /><linearGradient
     inkscape:collect="always"
     xlink:href="#linearGradient5493"
     id="linearGradient2937"
     gradientUnits="userSpaceOnUse"
     gradientTransform="translate(39.833348,-105.60054)"
     x1="648.09625"
     y1="705.98822"
     x2="468.3215"
     y2="698.98822" /><linearGradient
     inkscape:collect="always"
     xlink:href="#linearGradient5458"
     id="linearGradient2939"
     gradientUnits="userSpaceOnUse"
     gradientTransform="translate(42.850525,-131.74186)"
     x1="462.74655"
     y1="698.98816"
     x2="651.06378"
     y2="709.26001" /><linearGradient
     inkscape:collect="always"
     xlink:href="#linearGradient5493"
     id="linearGradient2941"
     gradientUnits="userSpaceOnUse"
     gradientTransform="translate(41.894895,-129.10218)"
     x1="648.09625"
     y1="705.98822"
     x2="468.3215"
     y2="698.98822" /><linearGradient
     inkscape:collect="always"
     xlink:href="#linearGradient5465"
     id="linearGradient2943"
     gradientUnits="userSpaceOnUse"
     gradientTransform="translate(299.81451,-7.1960142e-2)"
     x1="279.62234"
     y1="637.11151"
     x2="272.62234"
     y2="628.64911" /><linearGradient
     inkscape:collect="always"
     xlink:href="#id4"
     id="linearGradient2945"
     gradientUnits="userSpaceOnUse"
     gradientTransform="translate(299.9336,-23.023585)"
     x1="279.62234"
     y1="637.11151"
     x2="272.62234"
     y2="628.64911" /><linearGradient
     inkscape:collect="always"
     xlink:href="#linearGradient5465"
     id="linearGradient2947"
     gradientUnits="userSpaceOnUse"
     gradientTransform="translate(318.36844,1.5772779)"
     x1="279.62234"
     y1="637.11151"
     x2="272.62234"
     y2="628.64911" /><linearGradient
     inkscape:collect="always"
     xlink:href="#id4"
     id="linearGradient2949"
     gradientUnits="userSpaceOnUse"
     gradientTransform="translate(318.48753,-21.374347)"
     x1="279.62234"
     y1="637.11151"
     x2="272.62234"
     y2="628.64911" /><linearGradient
     inkscape:collect="always"
     xlink:href="#linearGradient5465"
     id="linearGradient2951"
     gradientUnits="userSpaceOnUse"
     gradientTransform="translate(374.85485,4.8757547)"
     x1="279.62234"
     y1="637.11151"
     x2="272.62234"
     y2="628.64911" /><linearGradient
     inkscape:collect="always"
     xlink:href="#id4"
     id="linearGradient2953"
     gradientUnits="userSpaceOnUse"
     gradientTransform="translate(374.97394,-18.075871)"
     x1="279.62234"
     y1="637.11151"
     x2="272.62234"
     y2="628.64911" /><linearGradient
     inkscape:collect="always"
     xlink:href="#linearGradient5465"
     id="linearGradient2955"
     gradientUnits="userSpaceOnUse"
     gradientTransform="translate(250.19831,-48.423632)"
     x1="279.62234"
     y1="637.11151"
     x2="272.62234"
     y2="628.64911" /><linearGradient
     inkscape:collect="always"
     xlink:href="#id4"
     id="linearGradient2957"
     gradientUnits="userSpaceOnUse"
     gradientTransform="translate(250.3174,-71.375258)"
     x1="279.62234"
     y1="637.11151"
     x2="272.62234"
     y2="628.64911" /><linearGradient
     inkscape:collect="always"
     xlink:href="#linearGradient5465"
     id="linearGradient2959"
     gradientUnits="userSpaceOnUse"
     gradientTransform="translate(299.86805,-44.98534)"
     x1="279.62234"
     y1="637.11151"
     x2="272.62234"
     y2="628.64911" /><linearGradient
     inkscape:collect="always"
     xlink:href="#id4"
     id="linearGradient2961"
     gradientUnits="userSpaceOnUse"
     gradientTransform="translate(299.98714,-67.936965)"
     x1="279.62234"
     y1="637.11151"
     x2="272.62234"
     y2="628.64911" /><linearGradient
     inkscape:collect="always"
     xlink:href="#linearGradient5465"
     id="linearGradient2963"
     gradientUnits="userSpaceOnUse"
     gradientTransform="translate(318.42198,-43.336102)"
     x1="279.62234"
     y1="637.11151"
     x2="272.62234"
     y2="628.64911" /><linearGradient
     inkscape:collect="always"
     xlink:href="#id4"
     id="linearGradient2965"
     gradientUnits="userSpaceOnUse"
     gradientTransform="translate(318.54107,-66.287727)"
     x1="279.62234"
     y1="637.11151"
     x2="272.62234"
     y2="628.64911" /><linearGradient
     inkscape:collect="always"
     xlink:href="#linearGradient5465"
     id="linearGradient2967"
     gradientUnits="userSpaceOnUse"
     gradientTransform="translate(374.90839,-40.037625)"
     x1="279.62234"
     y1="637.11151"
     x2="272.62234"
     y2="628.64911" /><linearGradient
     inkscape:collect="always"
     xlink:href="#id4"
     id="linearGradient2969"
     gradientUnits="userSpaceOnUse"
     gradientTransform="translate(375.02748,-62.989251)"
     x1="279.62234"
     y1="637.11151"
     x2="272.62234"
     y2="628.64911" /></defs>
 
<g
   id="g2863"
   transform="matrix(6.0404494,0,0,9.8437501,-3124.1393,-5256.5626)"><path
     style="fill:url(#radialGradient2913)"
     id="path4924"
     d="M 705,556 L 489,544 L 556,534 L 755,543 L 705,556 L 705,556 z "
     class="fil0" /><path
     sodipodi:nodetypes="ccccc"
     style="fill:url(#radialGradient2915)"
     id="path4926"
     d="M 705,662 L 488,649 L 489,546 L 706.14577,558 L 705,662 z "
     class="fil1" /><path
     style="fill:url(#radialGradient2917)"
     id="path4928"
     d="M 755,640 L 705,662 L 706,557 L 755,542 L 755,640 z "
     class="fil2" /><path
     sodipodi:nodetypes="ccccc"
     style="fill:url(#linearGradient2919)"
     id="path4930"
     d="M 489,547 L 489,544 L 706,555 L 705.85422,558.29154 L 489,547 z "
     class="fil3" /><path
     sodipodi:nodetypes="ccccc"
     style="fill:url(#linearGradient2921);fill-opacity:1"
     id="path4932"
     d="M 753,543 L 755,543 L 705.85423,558.14577 L 705.70845,555 L 753,543 z "
     class="fil4" /><path
     style="fill:url(#id11);fill-rule:evenodd"
     id="path3357"
     d="M 498.76713,612.60126 L 690.76713,624.60126 L 690.76713,626.60126 L 498.76713,614.60126 L 498.76713,612.60126 z "
     class="fil6" /><path
     sodipodi:nodetypes="ccccc"
     style="fill:#a8a1c4;fill-rule:evenodd"
     id="path3361"
     d="M 531.69993,626.27325 L 531.76713,634.00445 L 528.83433,633.33246 L 528.76713,625.60126 L 531.69993,626.27325 z "
     class="fil8" /><path
     style="fill:url(#id10);fill-rule:evenodd"
     id="path3367"
     d="M 498.76713,641.60126 L 690.76713,653.60126 L 690.76713,655.60126 L 498.76713,643.60126 L 498.76713,641.60126 z "
     class="fil10" /><path
     style="fill:url(#linearGradient2923);fill-opacity:1;fill-rule:evenodd"
     id="path3369"
     d="M 500.15949,637.86081 C 500.15949,638.86081 500.15949,638.86081 500.15949,639.86081 C 564.15949,643.86081 628.15949,647.86081 692.15949,651.86081 L 692.15949,648.86081 L 500.15949,637.86081 z "
     class="fil11" /><path
     sodipodi:nodetypes="ccccc"
     style="fill:url(#linearGradient2925);fill-rule:evenodd"
     id="path3371"
     d="M 529.76713,625.66846 L 529.76713,633.60126 L 522.76713,633.00445 L 522.76713,625.13885 L 529.76713,625.66846 z "
     class="fil12" /><path
     style="fill:url(#linearGradient2927);fill-opacity:1;fill-rule:evenodd"
     id="path4469"
     d="M 499.22545,640.21045 C 499.22243,641.21045 499.22243,641.21045 499.21941,642.21045 C 563.20703,646.40381 627.19465,650.59717 691.18227,654.79053 L 691.19134,651.79054 L 499.22545,640.21045 z "
     class="fil11" /><path
     sodipodi:nodetypes="ccccc"
     style="fill:#a8a1c4;fill-rule:evenodd"
     id="path4492"
     d="M 531.81902,603.32163 L 531.88622,611.05283 L 528.95342,610.38084 L 528.88622,602.64964 L 531.81902,603.32163 z "
     class="fil8" /><path
     sodipodi:nodetypes="ccccc"
     style="fill:url(#linearGradient2929);fill-opacity:1;fill-rule:evenodd"
     id="path4494"
     d="M 529.88622,602.71684 L 529.88622,610.64964 L 522.88622,610.05283 L 522.88622,602.18723 L 529.88622,602.71684 z "
     class="fil12" /><path
     style="fill:url(#id10);fill-rule:evenodd"
     id="path4498"
     d="M 501.39494,613.33278 L 693.39494,625.33278 L 693.39494,627.33278 L 501.39494,615.33278 L 501.39494,613.33278 z "
     class="fil10" /><path
     sodipodi:nodetypes="ccccc"
     style="fill:#a8a1c4;fill-rule:evenodd"
     id="path4520"
     d="M 582.31727,629.84191 L 582.38447,637.57311 L 579.45167,636.90112 L 579.38447,629.16992 L 582.31727,629.84191 z "
     class="fil8" /><path
     sodipodi:nodetypes="ccccc"
     style="fill:#a8a1c4;fill-rule:evenodd"
     id="path4524"
     d="M 582.43636,606.89029 L 582.50356,614.62149 L 579.57076,613.9495 L 579.50356,606.2183 L 582.43636,606.89029 z "
     class="fil8" /><path
     sodipodi:nodetypes="ccccc"
     style="fill:#a8a1c4;fill-rule:evenodd"
     id="path4532"
     d="M 600.94383,631.36244 L 601.01103,639.09364 L 598.07823,638.42165 L 598.01103,630.69045 L 600.94383,631.36244 z "
     class="fil8" /><path
     sodipodi:nodetypes="ccccc"
     style="fill:#a8a1c4;fill-rule:evenodd"
     id="path4536"
     d="M 601.06292,608.41082 L 601.13012,616.14202 L 598.19732,615.47003 L 598.13012,607.73883 L 601.06292,608.41082 z "
     class="fil8" /><path
     sodipodi:nodetypes="ccccc"
     style="fill:#a8a1c4;fill-rule:evenodd"
     id="path4544"
     d="M 657.96391,635.16378 L 658.03111,642.89498 L 655.09831,642.22299 L 655.03111,634.49179 L 657.96391,635.16378 z "
     class="fil8" /><path
     sodipodi:nodetypes="ccccc"
     style="fill:#a8a1c4;fill-rule:evenodd"
     id="path4548"
     d="M 658.083,612.21216 L 658.1502,619.94336 L 655.2174,619.27137 L 655.1502,611.54017 L 658.083,612.21216 z "
     class="fil8" /><path
     style="fill:url(#linearGradient2931);fill-opacity:1;fill-rule:evenodd"
     id="path5689"
     d="M 498.20354,616.31117 C 498.20354,617.31117 498.20354,617.31117 498.20354,618.31117 C 562.20354,622.31117 626.20354,626.31117 690.20354,630.31117 L 690.20354,627.31117 L 498.20354,616.31117 z "
     class="fil11" /><path
     style="fill:url(#linearGradient2933);fill-opacity:1;fill-rule:evenodd"
     id="path5691"
     d="M 497.24791,618.95085 C 497.24791,619.95085 497.24791,619.95085 497.24791,620.95085 C 561.24791,624.95085 625.24791,628.95085 689.24791,632.95085 L 689.24791,629.95085 L 497.24791,618.95085 z "
     class="fil11" /><path
     style="fill:url(#linearGradient2935);fill-opacity:1;fill-rule:evenodd"
     id="path5697"
     d="M 499.85278,590.74798 C 499.85278,591.74798 499.85278,591.74798 499.85278,592.74798 C 563.85278,596.74798 627.85278,600.74798 691.85278,604.74798 L 691.85278,601.74798 L 499.85278,590.74798 z "
     class="fil11" /><path
     style="fill:url(#linearGradient2937);fill-opacity:1;fill-rule:evenodd"
     id="path5699"
     d="M 498.89715,593.38766 C 498.89715,594.38766 498.89715,594.38766 498.89715,595.38766 C 562.89715,599.38766 626.89715,603.38766 690.89715,607.38766 L 690.89715,604.38766 L 498.89715,593.38766 z "
     class="fil11" /><path
     style="fill:url(#linearGradient2939);fill-opacity:1;fill-rule:evenodd"
     id="path5705"
     d="M 501.91432,567.24633 C 501.91432,568.24633 501.91432,568.24633 501.91432,569.24633 C 565.91432,573.24633 629.91432,577.24633 693.91432,581.24633 L 693.91432,578.24633 L 501.91432,567.24633 z "
     class="fil11" /><path
     style="fill:url(#linearGradient2941);fill-opacity:1;fill-rule:evenodd"
     id="path5707"
     d="M 500.95869,569.88601 C 500.95869,570.88601 500.95869,570.88601 500.95869,571.88601 C 564.95869,575.88601 628.95869,579.88601 692.95869,583.88601 L 692.95869,580.88601 L 500.95869,569.88601 z "
     class="fil11" /><path
     sodipodi:nodetypes="ccccc"
     style="fill:url(#linearGradient2943);fill-rule:evenodd"
     id="path5715"
     d="M 579.43687,629.10675 L 579.43687,637.03955 L 572.43687,636.44274 L 572.43687,628.57714 L 579.43687,629.10675 z "
     class="fil12" /><path
     sodipodi:nodetypes="ccccc"
     style="fill:url(#linearGradient2945);fill-opacity:1;fill-rule:evenodd"
     id="path5717"
     d="M 579.55596,606.15513 L 579.55596,614.08793 L 572.55596,613.49112 L 572.55596,605.62552 L 579.55596,606.15513 z "
     class="fil12" /><path
     sodipodi:nodetypes="ccccc"
     style="fill:url(#linearGradient2947);fill-rule:evenodd"
     id="path5723"
     d="M 597.9908,630.75599 L 597.9908,638.68879 L 590.9908,638.09198 L 590.9908,630.22638 L 597.9908,630.75599 z "
     class="fil12" /><path
     sodipodi:nodetypes="ccccc"
     style="fill:url(#linearGradient2949);fill-opacity:1;fill-rule:evenodd"
     id="path5725"
     d="M 598.10989,607.80437 L 598.10989,615.73717 L 591.10989,615.14036 L 591.10989,607.27476 L 598.10989,607.80437 z "
     class="fil12" /><path
     sodipodi:nodetypes="ccccc"
     style="fill:url(#linearGradient2951);fill-rule:evenodd"
     id="path5731"
     d="M 654.47721,634.05446 L 654.47721,641.98726 L 647.47721,641.39045 L 647.47721,633.52485 L 654.47721,634.05446 z "
     class="fil12" /><path
     sodipodi:nodetypes="ccccc"
     style="fill:url(#linearGradient2953);fill-opacity:1;fill-rule:evenodd"
     id="path5733"
     d="M 654.5963,611.10284 L 654.5963,619.03564 L 647.5963,618.43883 L 647.5963,610.57323 L 654.5963,611.10284 z "
     class="fil12" /><path
     sodipodi:nodetypes="ccccc"
     style="fill:#a8a1c4;fill-rule:evenodd"
     id="path5749"
     d="M 531.75347,581.35987 L 531.82067,589.09107 L 528.88787,588.41908 L 528.82067,580.68788 L 531.75347,581.35987 z "
     class="fil8" /><path
     sodipodi:nodetypes="ccccc"
     style="fill:url(#linearGradient2955);fill-rule:evenodd"
     id="path5751"
     d="M 529.82067,580.75508 L 529.82067,588.68788 L 522.82067,588.09107 L 522.82067,580.22547 L 529.82067,580.75508 z "
     class="fil12" /><path
     sodipodi:nodetypes="ccccc"
     style="fill:#a8a1c4;fill-rule:evenodd"
     id="path5753"
     d="M 531.87256,558.40825 L 531.93976,566.13945 L 529.00696,565.46746 L 528.93976,557.73626 L 531.87256,558.40825 z "
     class="fil8" /><path
     sodipodi:nodetypes="ccccc"
     style="fill:url(#linearGradient2957);fill-opacity:1;fill-rule:evenodd"
     id="path5755"
     d="M 529.93976,557.80346 L 529.93976,565.73626 L 522.93976,565.13945 L 522.93976,557.27385 L 529.93976,557.80346 z "
     class="fil12" /><path
     sodipodi:nodetypes="ccccc"
     style="fill:#a8a1c4;fill-rule:evenodd"
     id="path5759"
     d="M 582.37081,584.92853 L 582.43801,592.65973 L 579.50521,591.98774 L 579.43801,584.25654 L 582.37081,584.92853 z "
     class="fil8" /><path
     sodipodi:nodetypes="ccccc"
     style="fill:#a8a1c4;fill-rule:evenodd"
     id="path5761"
     d="M 582.4899,561.97691 L 582.5571,569.70811 L 579.6243,569.03612 L 579.5571,561.30492 L 582.4899,561.97691 z "
     class="fil8" /><path
     sodipodi:nodetypes="ccccc"
     style="fill:#a8a1c4;fill-rule:evenodd"
     id="path5763"
     d="M 600.99737,586.44906 L 601.06457,594.18026 L 598.13177,593.50827 L 598.06457,585.77707 L 600.99737,586.44906 z "
     class="fil8" /><path
     sodipodi:nodetypes="ccccc"
     style="fill:#a8a1c4;fill-rule:evenodd"
     id="path5765"
     d="M 601.11646,563.49744 L 601.18366,571.22864 L 598.25086,570.55665 L 598.18366,562.82545 L 601.11646,563.49744 z "
     class="fil8" /><path
     sodipodi:nodetypes="ccccc"
     style="fill:#a8a1c4;fill-rule:evenodd"
     id="path5767"
     d="M 658.01745,590.2504 L 658.08465,597.9816 L 655.15185,597.30961 L 655.08465,589.57841 L 658.01745,590.2504 z "
     class="fil8" /><path
     sodipodi:nodetypes="ccccc"
     style="fill:#a8a1c4;fill-rule:evenodd"
     id="path5769"
     d="M 658.13654,567.29878 L 658.20374,575.02998 L 655.27094,574.35799 L 655.20374,566.62679 L 658.13654,567.29878 z "
     class="fil8" /><path
     sodipodi:nodetypes="ccccc"
     style="fill:url(#linearGradient2959);fill-rule:evenodd"
     id="path5775"
     d="M 579.49041,584.19337 L 579.49041,592.12617 L 572.49041,591.52936 L 572.49041,583.66376 L 579.49041,584.19337 z "
     class="fil12" /><path
     sodipodi:nodetypes="ccccc"
     style="fill:url(#linearGradient2961);fill-opacity:1;fill-rule:evenodd"
     id="path5777"
     d="M 579.6095,561.24175 L 579.6095,569.17455 L 572.6095,568.57774 L 572.6095,560.71214 L 579.6095,561.24175 z "
     class="fil12" /><path
     sodipodi:nodetypes="ccccc"
     style="fill:url(#linearGradient2963);fill-rule:evenodd"
     id="path5779"
     d="M 598.04434,585.84261 L 598.04434,593.77541 L 591.04434,593.1786 L 591.04434,585.313 L 598.04434,585.84261 z "
     class="fil12" /><path
     sodipodi:nodetypes="ccccc"
     style="fill:url(#linearGradient2965);fill-opacity:1;fill-rule:evenodd"
     id="path5781"
     d="M 598.16343,562.89099 L 598.16343,570.82379 L 591.16343,570.22698 L 591.16343,562.36138 L 598.16343,562.89099 z "
     class="fil12" /><path
     sodipodi:nodetypes="ccccc"
     style="fill:url(#linearGradient2967);fill-rule:evenodd"
     id="path5783"
     d="M 654.53075,589.14108 L 654.53075,597.07388 L 647.53075,596.47707 L 647.53075,588.61147 L 654.53075,589.14108 z "
     class="fil12" /><path
     sodipodi:nodetypes="ccccc"
     style="fill:url(#linearGradient2969);fill-opacity:1;fill-rule:evenodd"
     id="path5785"
     d="M 654.64984,566.18946 L 654.64984,574.12226 L 647.64984,573.52545 L 647.64984,565.65985 L 654.64984,566.18946 z "
     class="fil12" /></g></svg>