<?xml version="1.0" encoding="UTF-8" standalone="no"?>
<!-- Created with Inkscape (http://www.inkscape.org/) -->
<svg
   xmlns:dc="http://purl.org/dc/elements/1.1/"
   xmlns:cc="http://web.resource.org/cc/"
   xmlns:rdf="http://www.w3.org/1999/02/22-rdf-syntax-ns#"
   xmlns:svg="http://www.w3.org/2000/svg"
   xmlns="http://www.w3.org/2000/svg"
   xmlns:sodipodi="http://sodipodi.sourceforge.net/DTD/sodipodi-0.dtd"
   xmlns:inkscape="http://www.inkscape.org/namespaces/inkscape"
   width="39.226002"
   height="61.564999"
   id="svg2"
   sodipodi:version="0.32"
   inkscape:version="0.45.1"
   version="1.0"
   sodipodi:docbase="C:\Documents and Settings\HZ05215\桌面"
   sodipodi:docname="735.svg"
   inkscape:output_extension="org.inkscape.output.svg.inkscape">
  <defs
     id="defs4" />
  <sodipodi:namedview
     id="base"
     pagecolor="#ffffff"
     bordercolor="#666666"
     borderopacity="1.0"
     gridtolerance="10000"
     guidetolerance="10"
     objecttolerance="10"
     inkscape:pageopacity="0.0"
     inkscape:pageshadow="2"
     inkscape:zoom="1"
     inkscape:cx="150.63004"
     inkscape:cy="-80"
     inkscape:document-units="px"
     inkscape:current-layer="layer1"
     inkscape:window-width="1440"
     inkscape:window-height="810"
     inkscape:window-x="-4"
     inkscape:window-y="-4" />
  <metadata
     id="metadata7">
    <rdf:RDF>
      <cc:Work
         rdf:about="">
        <dc:format>image/svg+xml</dc:format>
        <dc:type
           rdf:resource="http://purl.org/dc/dcmitype/StillImage" />
      </cc:Work>
    </rdf:RDF>
  </metadata>
  <g
     inkscape:label="Layer 1"
     inkscape:groupmode="layer"
     id="layer1"
     transform="translate(-323.24414,-127.29397)">
    <g
       style="overflow:visible"
       id="g2320"
       transform="translate(320.51514,125.81997)">
      <g
         id="图层_1_1_">
	
		<g
   sodipodi:version="0.32"
   sodipodi:docname="725.svg"
   sodipodi:docbase="D:\04_NMS\Graphic Lib"
   inkscape:version="0.45.1"
   inkscape:output_extension="org.inkscape.output.svg.inkscape"
   id="svg7726">
		
			<sodipodi:namedview
   inkscape:window-x="363"
   inkscape:pageopacity="0.0"
   inkscape:pageshadow="2"
   inkscape:window-width="677"
   inkscape:guide-bbox="true"
   inkscape:window-height="579"
   inkscape:current-layer="svg7726"
   objecttolerance="10.0"
   inkscape:window-y="137"
   height="32pt"
   width="32pt"
   id="namedview2324"
   bordercolor="#666666"
   showguides="true"
   inkscape:cy="25.159969"
   borderopacity="1.0"
   pagecolor="#ffffff"
   gridtolerance="10.0"
   guidetolerance="10.0"
   showborder="false"
   inkscape:zoom="1"
   inkscape:cx="38.693672">
			</sodipodi:namedview>

	</g>

	<g
   id="图层_2">
		<polyline
   id="polyline2165"
   points="36.393,31.115 6.99,24.616 6.1,4.432 36.771,10.395   "
   style="fill:#7d7c7d" />

		<g
   id="g2167">
			
				<rect
   id="rect2169"
   height="0.25"
   width="20.205"
   transform="matrix(-4.41e-2,-0.999,0.999,-4.41e-2,-6.3291,23.757)"
   y="14.781"
   x="-1.901"
   style="fill:#616163" />

		</g>

		<g
   id="g2171">
			
				<rect
   id="rect2173"
   height="0.25"
   width="20.205"
   transform="matrix(-4.41e-2,-0.999,0.999,-4.41e-2,-4.7566,26.1532)"
   y="15.227"
   x="0.032000002"
   style="fill:#616163" />

		</g>

		<g
   id="g2175">
			
				<rect
   id="rect2177"
   height="0.25"
   width="20.205"
   transform="matrix(-4.4e-2,-0.999,0.999,-4.4e-2,-3.1837,28.5526)"
   y="15.674"
   x="1.967"
   style="fill:#616163" />

		</g>

		
			<radialGradient
   gradientUnits="userSpaceOnUse"
   gradientTransform="matrix(1,0,0,-1,-250.9492,1075.3037)"
   r="38.900002"
   cy="1017.3721"
   cx="284.63211"
   id="XMLID_3_">
			<stop
   id="stop2180"
   style="stop-color:#C9CADA"
   offset="0" />

			<stop
   id="stop2182"
   style="stop-color:#A7A3BC"
   offset="0.3608" />

			<stop
   id="stop2184"
   style="stop-color:#857C9E"
   offset="1" />

		</radialGradient>

		<polygon
   id="polygon2186"
   points="36.638,10.469 41.955,7.521 40.899,57.289 32.42,63.039 32.652,33.203 32.688,32.926 36.393,31.115 36.638,10.469 "
   style="fill:url(#XMLID_3_)" />

		<polyline
   id="polyline2188"
   points="32.596,33.146 2.729,26.98 3.439,56.081 32.265,63.007   "
   style="fill:#746c8a" />

		<polyline
   id="polyline2190"
   points="6.99,24.616 2.729,26.98 32.511,33.062 36.393,31.115   "
   style="fill:#746c8a" />

		<polyline
   id="polyline2192"
   points="25.044,10.679 24.961,31.544 29.162,29.248 29.062,8.831   "
   style="fill:#857c9e" />

		
			<radialGradient
   gradientUnits="userSpaceOnUse"
   gradientTransform="matrix(1,0,0,-1,-250.9492,1075.3037)"
   r="19.6271"
   cy="1067.498"
   cx="287.88211"
   id="XMLID_4_">
			<stop
   id="stop2195"
   style="stop-color:#857C9E"
   offset="0" />

			<stop
   id="stop2197"
   style="stop-color:#AAADC7"
   offset="1" />

		</radialGradient>

		<polygon
   id="polygon2199"
   points="41.955,7.521 11.2,1.474 6.35,4.432 6.277,4.432 13.651,5.856 10.446,7.625 25.044,10.679 28.565,8.736 36.679,10.303 41.955,7.521 "
   style="fill:url(#XMLID_4_)" />

		<g
   id="g2201">
			
				<rect
   id="rect2203"
   height="0.25"
   width="20.344"
   transform="matrix(-2.3e-3,-1,1,-2.3e-3,11.2739,50.4604)"
   y="19.481001"
   x="20.638"
   style="fill:#616163" />

		</g>

		<g
   id="g2205">
			
				<rect
   id="rect2207"
   height="0.25"
   width="20.344999"
   transform="matrix(-2.3e-3,-1,1,-2.3e-3,12.5503,52.4991)"
   y="19.864"
   x="22.292999"
   style="fill:#616163" />

		</g>

		<g
   id="g2209">
			
				<rect
   id="rect2211"
   height="0.25"
   width="20.344999"
   transform="matrix(-2.3e-3,-1,1,-2.3e-3,14.0423,54.8798)"
   y="20.309999"
   x="24.226999"
   style="fill:#616163" />

		</g>

	</g>

	<polyline
   id="polyline2213"
   points="10.446,7.625 11.042,28.678 24.961,31.544 25.044,10.679  "
   style="fill:#8d8d8e" />

	<polyline
   id="polyline2215"
   points="3.319,51.148 32.532,58.108 32.532,38.234 2.878,32.019  "
   style="fill:#8d8d8e" />

	<g
   id="g2217">
		<rect
   id="rect2219"
   height="19.874001"
   width="0.25"
   y="37.852001"
   x="30.752001"
   style="fill:#616163" />

	</g>

	<g
   id="g2221">
		<rect
   id="rect2223"
   height="19.875"
   width="0.25"
   y="37.469002"
   x="29.094999"
   style="fill:#616163" />

	</g>

	<g
   id="g2225">
		<rect
   id="rect2227"
   height="19.768"
   width="0.25"
   y="37.193001"
   x="27.438999"
   style="fill:#616163" />

	</g>

	<g
   id="g2229">
		<rect
   id="rect2231"
   height="19.733"
   width="0.25"
   y="36.846001"
   x="25.783001"
   style="fill:#616163" />

	</g>

	<g
   id="g2233">
		<rect
   id="rect2235"
   height="19.698"
   width="0.25"
   y="36.499001"
   x="24.127001"
   style="fill:#616163" />

	</g>

	<g
   id="g2237">
		<rect
   id="rect2239"
   height="19.663"
   width="0.25"
   y="36.151001"
   x="22.469999"
   style="fill:#616163" />

	</g>

	<g
   id="g2241">
		<rect
   id="rect2243"
   height="19.628"
   width="0.25"
   y="35.804001"
   x="20.815001"
   style="fill:#616163" />

	</g>

	<g
   id="g2245">
		<rect
   id="rect2247"
   height="19.591999"
   width="0.25"
   y="35.458"
   x="19.158001"
   style="fill:#616163" />

	</g>

	<g
   id="g2249">
		<rect
   id="rect2251"
   height="19.556999"
   width="0.25"
   y="35.110001"
   x="17.502001"
   style="fill:#616163" />

	</g>

	<g
   id="g2253">
		
			<rect
   id="rect2255"
   height="0.25"
   width="19.445"
   transform="matrix(-9.7e-3,-1,1,-9.7e-3,-28.2629,60.9815)"
   y="44.361"
   x="6.3429999"
   style="fill:#616163" />

	</g>

	<g
   id="g2257">
		
			<rect
   id="rect2259"
   height="0.25"
   width="19.552"
   transform="matrix(-1.42e-2,-0.9999,0.9999,-1.42e-2,-29.5281,59.2697)"
   y="44.066002"
   x="4.677"
   style="fill:#616163" />

	</g>

	<g
   id="g2261">
		
			<rect
   id="rect2263"
   height="0.25"
   width="19.517"
   transform="matrix(-1.41e-2,-0.9999,0.9999,-1.41e-2,-30.8444,57.2407)"
   y="43.701"
   x="3.039"
   style="fill:#616163" />

	</g>

	<g
   id="g2265">
		
			<rect
   id="rect2267"
   height="0.25"
   width="19.482"
   transform="matrix(-1.41e-2,-0.9999,0.9999,-1.41e-2,-32.1595,55.2163)"
   y="43.337002"
   x="1.4"
   style="fill:#616163" />

	</g>

	<g
   id="g2269">
		
			<rect
   id="rect2271"
   height="0.25"
   width="19.445999"
   transform="matrix(-1.43e-2,-0.9999,0.9999,-1.43e-2,-33.4726,53.1952)"
   y="42.972"
   x="-0.23800001"
   style="fill:#616163" />

	</g>

	<g
   id="g2273">
		
			<rect
   id="rect2275"
   height="0.25"
   width="19.410999"
   transform="matrix(-1.42e-2,-0.9999,0.9999,-1.42e-2,-34.7878,51.1689)"
   y="42.606998"
   x="-1.877"
   style="fill:#616163" />

	</g>

	<g
   id="g2277">
		
			<rect
   id="rect2279"
   height="0.25"
   width="19.375999"
   transform="matrix(-1.43e-2,-0.9999,0.9999,-1.43e-2,-36.1032,49.1445)"
   y="42.243"
   x="-3.5150001"
   style="fill:#616163" />

	</g>

	<g
   id="g2281">
		
			<rect
   id="rect2283"
   height="0.25"
   width="19.341"
   transform="matrix(-1.43e-2,-0.9999,0.9999,-1.43e-2,-37.4173,47.1185)"
   y="41.876999"
   x="-5.1539998"
   style="fill:#616163" />

	</g>

	<g
   id="g2285">
		
			<rect
   id="rect2287"
   height="0.25"
   width="21.063"
   transform="matrix(-2.83e-2,-0.9996,0.9996,-2.83e-2,-5.7762,31.4528)"
   y="18.409"
   x="1.868"
   style="fill:#616163" />

	</g>

	<g
   id="g2289">
		
			<rect
   id="rect2291"
   height="0.25"
   width="21.061001"
   transform="matrix(-2.83e-2,-0.9996,0.9996,-2.83e-2,-4.379,33.6201)"
   y="18.813"
   x="3.6210001"
   style="fill:#616163" />

	</g>

	<g
   id="g2293">
		
			<rect
   id="rect2295"
   height="0.25"
   width="21.062"
   transform="matrix(-2.83e-2,-0.9996,0.9996,-2.83e-2,-2.9814,35.7868)"
   y="19.216999"
   x="5.3730001"
   style="fill:#616163" />

	</g>

	<g
   id="g2297">
		
			<rect
   id="rect2299"
   height="0.25"
   width="21.17"
   transform="matrix(-1.97e-2,-0.9998,0.9998,-1.97e-2,-1.593,37.8198)"
   y="19.566"
   x="7.1599998"
   style="fill:#616163" />

	</g>

	<g
   id="g2301">
		
			<rect
   id="rect2303"
   height="0.25"
   width="21.197001"
   transform="matrix(-1.75e-2,-0.9998,0.9998,-1.75e-2,-0.2172,39.9501)"
   y="19.957001"
   x="8.9209995"
   style="fill:#616163" />

	</g>

	<g
   id="g2305">
		
			<rect
   id="rect2307"
   height="0.25"
   width="21.07"
   transform="matrix(-5.2e-3,-1,1,-5.2e-3,0.9674,42.0585)"
   y="20.423"
   x="10.868"
   style="fill:#616163" />

	</g>

	<g
   id="g2309">
		<rect
   id="rect2311"
   height="21.172001"
   width="0.25"
   y="10.313"
   x="23.077999"
   style="fill:#616163" />

	</g>

</g>
      <g
         id="图层_2_1_">
</g>
    </g>
  </g>
</svg>
