<?xml version="1.0" encoding="UTF-8" standalone="no"?>
<!DOCTYPE svg PUBLIC "-//W3C//DTD SVG 1.0//EN" "http://www.w3.org/TR/2001/REC-SVG-20010904/DTD/svg10.dtd">
<!-- 由 Microsoft Visio 2003, SVG Export, v1.0 生成 TN765 201300508.svg 图层_1 -->
<svg xmlns="http://www.w3.org/2000/svg" xmlns:v="http://schemas.microsoft.com/visio/2003/SVGExtensions/" width="0.455in"
		height="0.4in" viewBox="0 0 32.76 28.8" xml:space="preserve" color-interpolation-filters="sRGB" class="st59">
	<v:documentProperties v:langID="1033" v:metric="true" v:viewMarkup="false"/>

	<style type="text/css">
	<![CDATA[
		.st1 {fill:url(#grad38-4);stroke:none;stroke-linecap:butt;stroke-width:0.75}
		.st2 {fill:url(#grad38-8);stroke:none;stroke-linecap:butt;stroke-width:0.75}
		.st3 {fill:#8d8d8e;stroke:none;stroke-linecap:butt;stroke-width:0.75}
		.st4 {fill:#5d626c;stroke:none;stroke-linecap:butt;stroke-width:0.75}
		.st5 {fill:url(#grad27-16);stroke:none;stroke-linecap:butt;stroke-width:0.75}
		.st6 {fill:url(#grad27-16)}
		.st7 {stroke:none;stroke-linecap:butt;stroke-width:0.75}
		.st8 {fill:#746c8a;stroke:none;stroke-linecap:butt;stroke-width:0.75}
		.st9 {fill:#5c5e6a;stroke:none;stroke-linecap:butt;stroke-width:0.75}
		.st10 {fill:#000000;stroke:none;stroke-linecap:butt;stroke-width:0.75}
		.st11 {fill:#060606;stroke:none;stroke-linecap:butt;stroke-width:0.75}
		.st12 {fill:#0c0c0c;stroke:none;stroke-linecap:butt;stroke-width:0.75}
		.st13 {fill:#121212;stroke:none;stroke-linecap:butt;stroke-width:0.75}
		.st14 {fill:#181818;stroke:none;stroke-linecap:butt;stroke-width:0.75}
		.st15 {fill:#1e1e1e;stroke:none;stroke-linecap:butt;stroke-width:0.75}
		.st16 {fill:#242424;stroke:none;stroke-linecap:butt;stroke-width:0.75}
		.st17 {fill:#2a2a2a;stroke:none;stroke-linecap:butt;stroke-width:0.75}
		.st18 {fill:#303030;stroke:none;stroke-linecap:butt;stroke-width:0.75}
		.st19 {fill:#363636;stroke:none;stroke-linecap:butt;stroke-width:0.75}
		.st20 {fill:#3c3c3c;stroke:none;stroke-linecap:butt;stroke-width:0.75}
		.st21 {fill:#424343;stroke:none;stroke-linecap:butt;stroke-width:0.75}
		.st22 {fill:#484949;stroke:none;stroke-linecap:butt;stroke-width:0.75}
		.st23 {fill:#4e4f4f;stroke:none;stroke-linecap:butt;stroke-width:0.75}
		.st24 {fill:#545555;stroke:none;stroke-linecap:butt;stroke-width:0.75}
		.st25 {fill:#5a5b5b;stroke:none;stroke-linecap:butt;stroke-width:0.75}
		.st26 {fill:#606161;stroke:none;stroke-linecap:butt;stroke-width:0.75}
		.st27 {fill:#666767;stroke:none;stroke-linecap:butt;stroke-width:0.75}
		.st28 {fill:#6c6d6d;stroke:none;stroke-linecap:butt;stroke-width:0.75}
		.st29 {fill:#727373;stroke:none;stroke-linecap:butt;stroke-width:0.75}
		.st30 {fill:#787979;stroke:none;stroke-linecap:butt;stroke-width:0.75}
		.st31 {fill:#7f7f7f;stroke:none;stroke-linecap:butt;stroke-width:0.75}
		.st32 {fill:#858585;stroke:none;stroke-linecap:butt;stroke-width:0.75}
		.st33 {fill:#8b8b8b;stroke:none;stroke-linecap:butt;stroke-width:0.75}
		.st34 {fill:#919191;stroke:none;stroke-linecap:butt;stroke-width:0.75}
		.st35 {fill:#979797;stroke:none;stroke-linecap:butt;stroke-width:0.75}
		.st36 {fill:#9d9d9d;stroke:none;stroke-linecap:butt;stroke-width:0.75}
		.st37 {fill:#a3a3a3;stroke:none;stroke-linecap:butt;stroke-width:0.75}
		.st38 {fill:#a9a9a9;stroke:none;stroke-linecap:butt;stroke-width:0.75}
		.st39 {fill:#afafaf;stroke:none;stroke-linecap:butt;stroke-width:0.75}
		.st40 {fill:#b5b5b5;stroke:none;stroke-linecap:butt;stroke-width:0.75}
		.st41 {fill:#bbbcbc;stroke:none;stroke-linecap:butt;stroke-width:0.75}
		.st42 {fill:#c1c2c2;stroke:none;stroke-linecap:butt;stroke-width:0.75}
		.st43 {fill:#c7c8c8;stroke:none;stroke-linecap:butt;stroke-width:0.75}
		.st44 {fill:#cdcece;stroke:none;stroke-linecap:butt;stroke-width:0.75}
		.st45 {fill:#d3d4d4;stroke:none;stroke-linecap:butt;stroke-width:0.75}
		.st46 {fill:#d9dada;stroke:none;stroke-linecap:butt;stroke-width:0.75}
		.st47 {fill:#dfe0e0;stroke:none;stroke-linecap:butt;stroke-width:0.75}
		.st48 {fill:#e5e6e6;stroke:none;stroke-linecap:butt;stroke-width:0.75}
		.st49 {fill:#ebecec;stroke:none;stroke-linecap:butt;stroke-width:0.75}
		.st50 {fill:#f1f2f2;stroke:none;stroke-linecap:butt;stroke-width:0.75}
		.st51 {fill:#f7f8f8;stroke:none;stroke-linecap:butt;stroke-width:0.75}
		.st52 {fill:url(#grad28-127);stroke:none;stroke-linecap:butt;stroke-width:0.75}
		.st53 {fill:#616163;stroke:none;stroke-linecap:butt;stroke-width:0.750002}
		.st54 {fill:#575757;stroke:none;stroke-linecap:butt;stroke-width:0.75}
		.st55 {fill:url(#grad30-145)}
		.st56 {fill:#faee00;stroke:none;stroke-linecap:butt;stroke-width:0.75}
		.st57 {fill:#ffffff;stroke:none;stroke-linecap:butt;stroke-width:0.75}
		.st58 {fill:#9294a9;stroke:none;stroke-linecap:butt;stroke-width:0.75}
		.st59 {fill:none;fill-rule:evenodd;font-size:12;overflow:visible;stroke-linecap:square;stroke-miterlimit:3}
	]]>
	</style>

	<defs id="Patterns_And_Gradients">
		<radialGradient id="grad38-4" v:fillPattern="38" v:foreground="#857c9e" v:background="#aaadc7" cx="0" cy="1" r="1">
			<stop offset="0" style="stop-color:#857c9e;stop-opacity:1"/>
			<stop offset="1" style="stop-color:#aaadc7;stop-opacity:1"/>
		</radialGradient>
		<radialGradient id="grad38-8" v:fillPattern="38" v:foreground="#c9cada" v:background="#857c9e" cx="0" cy="1" r="1">
			<stop offset="0" style="stop-color:#c9cada;stop-opacity:1"/>
			<stop offset="1" style="stop-color:#857c9e;stop-opacity:1"/>
		</radialGradient>
		<linearGradient id="grad27-16" v:fillPattern="27" v:foreground="#3e424a" v:background="#7d818c" x1="1" y1="0" x2="0" y2="0">
			<stop offset="0" style="stop-color:#3e424a;stop-opacity:1"/>
			<stop offset="1" style="stop-color:#7d818c;stop-opacity:1"/>
		</linearGradient>
		<linearGradient id="grad28-127" v:fillPattern="28" v:foreground="#3e424a" v:background="#292929" x1="0" y1="0" x2="0"
				y2="1">
			<stop offset="0" style="stop-color:#3e424a;stop-opacity:1"/>
			<stop offset="1" style="stop-color:#292929;stop-opacity:1"/>
		</linearGradient>
		<linearGradient id="grad30-145" v:fillPattern="30" v:foreground="#3e424a" v:background="#7d818c" x1="0" y1="1" x2="0"
				y2="0">
			<stop offset="0" style="stop-color:#3e424a;stop-opacity:1"/>
			<stop offset="1" style="stop-color:#7d818c;stop-opacity:1"/>
		</linearGradient>
	</defs>
	<g v:mID="0" v:index="1" v:groupContext="foregroundPage">
		<title>图层_1</title>
		<v:pageProperties v:drawingScale="1" v:pageScale="1" v:drawingUnits="19" v:shadowOffsetX="9" v:shadowOffsetY="-9"/>
		<g id="shape2-1" v:mID="2" v:groupContext="shape" transform="translate(1.13688,-22.8736)">
			<title>工作表.2</title>
			<path d="M22.53 28.8 L0 26.38 L11.79 22.99 L31.49 24.66 L22.53 28.8 Z" class="st1"/>
		</g>
		<g id="shape3-5" v:mID="3" v:groupContext="shape" transform="translate(23.6048,-0.461406)">
			<title>工作表.3</title>
			<path d="M0 28.8 L8.68 20.88 L9.02 2.25 L0.06 6.39 L0 28.8 Z" class="st2"/>
		</g>
		<g id="shape5-9" v:mID="5" v:groupContext="shape" transform="translate(1.14175,-0.293094)">
			<title>工作表.5</title>
			<path d="M22.52 6.51 L22.3 6.29 L0.14 3.9 L0 4.07 L0.36 24.67 L22.46 28.8 L22.52 6.51 Z" class="st3"/>
		</g>
		<g id="shape6-11" v:mID="6" v:groupContext="shape" transform="translate(1.50103,-0.293094)">
			<title>工作表.6</title>
			<path d="M22.1 28.8 L0 24.67 L0 24.56 L22.1 28.69 L22.1 28.8 Z" class="st4"/>
		</g>
		<g id="shape7-13" v:mID="7" v:groupContext="shape" transform="translate(1.14175,-4.54896)">
			<title>工作表.7</title>
			<path d="M0.54 28.8 L0.19 8.34 L0 8.32 L0.36 28.76 L0.54 28.8 Z" class="st5"/>
		</g>
		<g id="shape8-17" v:mID="8" v:groupContext="shape" transform="translate(23.3874,-0.461406)">
			<title>工作表.8</title>
			<path d="M0.22 28.8 L0.28 6.67 L0.05 6.65 L0 28.77 L0.22 28.8 Z" class="st6"/>
			<path d="M0.22 28.8 L0.28 6.67 L0.05 6.65 L0 28.77" class="st7"/>
		</g>
		<g id="group9-21" transform="translate(1.51392,-9.83804)" v:mID="9" v:groupContext="group">
			<title>工作表.9</title>
			<g id="shape10-22" v:mID="10" v:groupContext="shape" transform="translate(-1.09412E-013,-2.24589)">
				<title>工作表.10</title>
				<path d="M7.26 28.8 L0.02 27.69 L0 26.47 L7.25 27.55 L7.26 28.8 Z" class="st8"/>
			</g>
			<g id="shape11-24" v:mID="11" v:groupContext="shape" transform="translate(12.5805,3.55271E-015)">
				<title>工作表.11</title>
				<path d="M9.32 28.8 L0.01 27.37 L0 26.1 L9.32 27.48 L9.32 28.8 Z" class="st8"/>
			</g>
			<g id="shape12-26" v:mID="12" v:groupContext="shape" transform="translate(0.145312,-0.438724)">
				<title>工作表.12</title>
				<path d="M0.07 25.07 C0.03 25.07 -0 25.1 0 25.14 L0.01 25.45 C0.01 25.49 0.04 25.53 0.08 25.54 C0.12 25.54 0.15 25.51
							 0.15 25.47 L0.14 25.16 C0.14 25.12 0.11 25.08 0.07 25.07 Z M0.35 25.12 C0.31 25.11 0.28 25.14 0.28 25.18
							 L0.28 25.49 C0.29 25.53 0.32 25.57 0.36 25.58 C0.39 25.58 0.43 25.55 0.42 25.51 L0.42 25.2 C0.42 25.16
							 0.39 25.12 0.35 25.12 Z M0.63 25.16 C0.59 25.15 0.56 25.18 0.56 25.23 L0.56 25.53 C0.56 25.57 0.6 25.61
							 0.63 25.62 C0.67 25.63 0.7 25.6 0.7 25.55 L0.7 25.25 C0.7 25.2 0.67 25.16 0.63 25.16 Z M0.91 25.2 C0.87
							 25.19 0.84 25.22 0.84 25.27 L0.84 25.57 C0.84 25.62 0.88 25.66 0.92 25.66 C0.95 25.67 0.98 25.64 0.98
							 25.6 L0.98 25.29 C0.98 25.25 0.95 25.21 0.91 25.2 Z M1.19 25.24 C1.15 25.24 1.12 25.27 1.12 25.31 L1.12
							 25.62 C1.12 25.66 1.16 25.7 1.2 25.7 C1.23 25.71 1.27 25.68 1.26 25.64 L1.26 25.33 C1.26 25.29 1.23
							 25.25 1.19 25.24 Z M1.47 25.28 C1.43 25.28 1.4 25.31 1.4 25.35 L1.4 25.66 C1.41 25.7 1.44 25.74 1.48
							 25.75 C1.51 25.75 1.55 25.72 1.55 25.68 L1.54 25.37 C1.54 25.33 1.51 25.29 1.47 25.28 Z M1.75 25.33
							 C1.71 25.32 1.68 25.35 1.68 25.39 L1.69 25.7 C1.69 25.74 1.72 25.79 1.76 25.79 C1.8 25.8 1.83 25.77
							 1.83 25.72 L1.82 25.42 C1.82 25.37 1.79 25.33 1.75 25.33 Z M2.03 25.37 C1.99 25.36 1.96 25.39 1.96 25.44
							 L1.97 25.74 C1.97 25.79 2 25.83 2.04 25.83 C2.08 25.84 2.11 25.81 2.11 25.77 L2.1 25.46 C2.1 25.42 2.07
							 25.38 2.03 25.37 Z M2.32 25.41 C2.28 25.41 2.24 25.44 2.25 25.48 L2.25 25.79 C2.25 25.83 2.28 25.87
							 2.32 25.88 C2.36 25.88 2.39 25.85 2.39 25.81 L2.39 25.5 C2.39 25.46 2.35 25.42 2.32 25.41 Z M2.6 25.45
							 C2.56 25.45 2.53 25.48 2.53 25.52 L2.53 25.83 C2.53 25.87 2.57 25.91 2.61 25.92 C2.65 25.93 2.68 25.9
							 2.68 25.85 L2.67 25.54 C2.67 25.5 2.64 25.46 2.6 25.45 Z M2.88 25.5 C2.84 25.49 2.81 25.52 2.81 25.56
							 L2.82 25.87 C2.82 25.92 2.85 25.96 2.89 25.96 C2.93 25.97 2.96 25.94 2.96 25.89 L2.96 25.59 C2.96 25.54
							 2.92 25.5 2.88 25.5 Z M3.17 25.54 C3.13 25.53 3.1 25.56 3.1 25.61 L3.1 25.92 C3.1 25.96 3.14 26 3.17
							 26.01 C3.21 26.01 3.25 25.98 3.24 25.94 L3.24 25.63 C3.24 25.59 3.21 25.55 3.17 25.54 Z M3.45 25.58
							 C3.41 25.58 3.38 25.61 3.38 25.65 L3.39 25.96 C3.39 26 3.42 26.04 3.46 26.05 C3.5 26.06 3.53 26.03 3.53
							 25.98 L3.53 25.67 C3.53 25.63 3.49 25.59 3.45 25.58 Z M3.74 25.63 C3.7 25.62 3.67 25.65 3.67 25.69 L3.67
							 26 C3.67 26.05 3.71 26.09 3.75 26.09 C3.79 26.1 3.82 26.07 3.82 26.03 L3.81 25.72 C3.81 25.67 3.78 25.63
							 3.74 25.63 Z M4.03 25.67 C3.99 25.66 3.95 25.69 3.95 25.74 L3.96 26.05 C3.96 26.09 3.99 26.13 4.03 26.14
							 C4.07 26.14 4.1 26.11 4.1 26.07 L4.1 25.76 C4.1 25.71 4.07 25.67 4.03 25.67 Z M4.31 25.71 C4.27 25.71
							 4.24 25.74 4.24 25.78 L4.25 26.09 C4.25 26.13 4.28 26.17 4.32 26.18 C4.36 26.19 4.39 26.16 4.39 26.11
							 L4.39 25.8 C4.39 25.76 4.35 25.72 4.31 25.71 Z M4.6 25.76 C4.56 25.75 4.53 25.78 4.53 25.82 L4.53 26.13
							 C4.53 26.18 4.57 26.22 4.61 26.22 C4.65 26.23 4.68 26.2 4.68 26.16 L4.67 25.85 C4.67 25.8 4.64 25.76
							 4.6 25.76 Z M4.89 25.8 C4.85 25.79 4.82 25.82 4.82 25.87 L4.82 26.18 C4.82 26.22 4.85 26.26 4.89 26.27
							 C4.94 26.27 4.97 26.24 4.97 26.2 L4.96 25.89 C4.96 25.84 4.93 25.8 4.89 25.8 Z M5.18 25.84 C5.14 25.84
							 5.11 25.87 5.11 25.91 L5.11 26.22 C5.11 26.27 5.14 26.31 5.18 26.31 C5.22 26.32 5.26 26.29 5.26 26.24
							 L5.25 25.93 C5.25 25.89 5.22 25.85 5.18 25.84 Z M5.47 25.89 C5.43 25.88 5.4 25.91 5.4 25.95 L5.4 26.27
							 C5.4 26.31 5.43 26.35 5.47 26.36 C5.51 26.36 5.55 26.33 5.55 26.29 L5.54 25.98 C5.54 25.93 5.51 25.89
							 5.47 25.89 Z M5.76 25.93 C5.72 25.92 5.68 25.95 5.69 26 L5.69 26.31 C5.69 26.35 5.72 26.39 5.76 26.4
							 C5.8 26.41 5.84 26.38 5.84 26.33 L5.83 26.02 C5.83 25.98 5.8 25.94 5.76 25.93 Z M6.05 25.97 C6.01 25.97
							 5.98 26 5.98 26.04 L5.98 26.35 C5.98 26.4 6.01 26.44 6.05 26.44 C6.1 26.45 6.13 26.42 6.13 26.38 L6.12
							 26.06 C6.12 26.02 6.09 25.98 6.05 25.97 Z M6.34 26.02 C6.3 26.01 6.27 26.04 6.27 26.08 L6.27 26.4 C6.27
							 26.44 6.31 26.48 6.35 26.49 C6.39 26.49 6.42 26.46 6.42 26.42 L6.41 26.11 C6.41 26.06 6.38 26.02 6.34
							 26.02 Z M6.63 26.06 C6.59 26.05 6.56 26.08 6.56 26.13 L6.56 26.44 C6.56 26.49 6.6 26.53 6.64 26.53 C6.68
							 26.54 6.71 26.51 6.71 26.46 L6.71 26.15 C6.71 26.11 6.67 26.07 6.63 26.06 Z M6.93 26.1 C6.89 26.1 6.85
							 26.13 6.85 26.17 L6.86 26.49 C6.86 26.53 6.89 26.57 6.93 26.58 C6.97 26.58 7 26.55 7 26.51 L7 26.2 C7
							 26.15 6.97 26.11 6.93 26.1 Z M12.67 26.97 C12.62 26.96 12.59 26.99 12.59 27.04 L12.59 27.36 C12.59 27.4
							 12.63 27.44 12.67 27.45 C12.71 27.46 12.75 27.43 12.75 27.38 L12.74 27.06 C12.74 27.02 12.71 26.97 12.67
							 26.97 Z M12.97 27.01 C12.93 27.01 12.9 27.04 12.9 27.08 L12.9 27.4 C12.9 27.45 12.93 27.49 12.98 27.5
							 C13.02 27.5 13.05 27.47 13.05 27.43 L13.05 27.11 C13.05 27.06 13.02 27.02 12.97 27.01 Z M13.28 27.06
							 C13.24 27.05 13.2 27.08 13.2 27.13 L13.2 27.45 C13.2 27.49 13.24 27.54 13.28 27.54 C13.32 27.55 13.36
							 27.52 13.36 27.47 L13.36 27.15 C13.36 27.11 13.32 27.07 13.28 27.06 Z M13.59 27.11 C13.54 27.1 13.51
							 27.13 13.51 27.18 L13.51 27.5 C13.51 27.54 13.55 27.58 13.59 27.59 C13.63 27.6 13.67 27.57 13.67 27.52
							 L13.67 27.2 C13.66 27.15 13.63 27.11 13.59 27.11 Z M13.9 27.15 C13.85 27.14 13.82 27.18 13.82 27.22
							 L13.82 27.54 C13.82 27.59 13.86 27.63 13.9 27.64 C13.94 27.64 13.98 27.61 13.98 27.57 L13.97 27.25 C13.97
							 27.2 13.94 27.16 13.9 27.15 Z M14.2 27.2 C14.16 27.19 14.13 27.22 14.13 27.27 L14.13 27.59 C14.13 27.63
							 14.16 27.68 14.21 27.68 C14.25 27.69 14.28 27.66 14.28 27.61 L14.28 27.29 C14.28 27.25 14.25 27.2 14.2
							 27.2 Z M14.51 27.24 C14.47 27.24 14.44 27.27 14.44 27.32 L14.44 27.64 C14.44 27.68 14.47 27.72 14.52
							 27.73 C14.56 27.74 14.59 27.71 14.59 27.66 L14.59 27.34 C14.59 27.29 14.56 27.25 14.51 27.24 Z M14.82
							 27.29 C14.78 27.28 14.75 27.32 14.75 27.36 L14.75 27.68 C14.75 27.73 14.78 27.77 14.83 27.78 C14.87
							 27.79 14.91 27.75 14.9 27.71 L14.9 27.39 C14.9 27.34 14.87 27.3 14.82 27.29 Z M15.14 27.34 C15.09 27.33
							 15.06 27.36 15.06 27.41 L15.06 27.73 C15.06 27.78 15.09 27.82 15.14 27.82 C15.18 27.83 15.22 27.8 15.22
							 27.75 L15.21 27.43 C15.21 27.39 15.18 27.34 15.14 27.34 Z M15.45 27.38 C15.4 27.38 15.37 27.41 15.37
							 27.46 L15.37 27.78 C15.37 27.82 15.41 27.87 15.45 27.87 C15.49 27.88 15.53 27.85 15.53 27.8 L15.53 27.48
							 C15.53 27.43 15.49 27.39 15.45 27.38 Z M15.76 27.43 C15.72 27.43 15.68 27.46 15.68 27.5 L15.68 27.83
							 C15.68 27.87 15.72 27.91 15.76 27.92 C15.81 27.93 15.84 27.89 15.84 27.85 L15.84 27.53 C15.84 27.48
							 15.8 27.44 15.76 27.43 Z M16.07 27.48 C16.03 27.47 15.99 27.5 15.99 27.55 L16 27.87 C16 27.92 16.03
							 27.96 16.07 27.97 C16.12 27.97 16.15 27.94 16.15 27.9 L16.15 27.57 C16.15 27.53 16.12 27.49 16.07 27.48
							 Z M16.39 27.53 C16.34 27.52 16.31 27.55 16.31 27.6 L16.31 27.92 C16.31 27.97 16.34 28.01 16.39 28.01
							 C16.43 28.02 16.47 27.99 16.47 27.94 L16.47 27.62 C16.47 27.58 16.43 27.53 16.39 27.53 Z M16.7 27.57
							 C16.66 27.57 16.62 27.6 16.62 27.64 L16.62 27.97 C16.62 28.01 16.66 28.06 16.7 28.06 C16.75 28.07 16.78
							 28.04 16.78 27.99 L16.78 27.67 C16.78 27.62 16.75 27.58 16.7 27.57 Z M17.02 27.62 C16.97 27.61 16.94
							 27.65 16.94 27.69 L16.94 28.02 C16.94 28.06 16.97 28.1 17.02 28.11 C17.06 28.12 17.1 28.09 17.1 28.04
							 L17.1 27.72 C17.1 27.67 17.06 27.63 17.02 27.62 Z M17.33 27.67 C17.29 27.66 17.25 27.69 17.25 27.74
							 L17.25 28.06 C17.25 28.11 17.29 28.15 17.33 28.16 C17.38 28.17 17.41 28.13 17.41 28.09 L17.41 27.76
							 C17.41 27.72 17.38 27.67 17.33 27.67 Z M17.65 27.72 C17.61 27.71 17.57 27.74 17.57 27.79 L17.57 28.11
							 C17.57 28.16 17.61 28.2 17.65 28.21 C17.69 28.21 17.73 28.18 17.73 28.14 L17.73 27.81 C17.73 27.77 17.69
							 27.72 17.65 27.72 Z M17.97 27.76 C17.92 27.76 17.89 27.79 17.89 27.83 L17.89 28.16 C17.89 28.21 17.92
							 28.25 17.97 28.26 C18.01 28.26 18.05 28.23 18.05 28.18 L18.05 27.86 C18.05 27.81 18.01 27.77 17.97 27.76
							 Z M18.29 27.81 C18.24 27.8 18.21 27.84 18.21 27.88 L18.21 28.21 C18.21 28.25 18.24 28.3 18.29 28.3 C18.33
							 28.31 18.37 28.28 18.37 28.23 L18.37 27.91 C18.37 27.86 18.33 27.82 18.29 27.81 Z M18.61 27.86 C18.56
							 27.85 18.53 27.88 18.53 27.93 L18.53 28.26 C18.53 28.3 18.56 28.35 18.61 28.35 C18.65 28.36 18.69 28.33
							 18.69 28.28 L18.69 27.95 C18.69 27.91 18.65 27.87 18.61 27.86 Z M18.93 27.91 C18.88 27.9 18.85 27.93
							 18.85 27.98 L18.85 28.31 C18.85 28.35 18.88 28.39 18.93 28.4 C18.97 28.41 19.01 28.38 19.01 28.33 L19.01
							 28 C19.01 27.96 18.97 27.91 18.93 27.91 Z M19.25 27.96 C19.2 27.95 19.17 27.98 19.17 28.03 L19.17 28.35
							 C19.17 28.4 19.2 28.44 19.25 28.45 C19.29 28.46 19.33 28.42 19.33 28.38 L19.33 28.05 C19.33 28.01 19.29
							 27.96 19.25 27.96 Z M19.57 28 C19.52 28 19.49 28.03 19.49 28.07 L19.49 28.4 C19.49 28.45 19.52 28.49
							 19.57 28.5 C19.61 28.5 19.65 28.47 19.65 28.43 L19.65 28.1 C19.65 28.05 19.61 28.01 19.57 28 Z M19.89
							 28.05 C19.84 28.05 19.81 28.08 19.81 28.12 L19.81 28.45 C19.81 28.5 19.84 28.54 19.89 28.55 C19.93 28.55
							 19.97 28.52 19.97 28.48 L19.97 28.15 C19.97 28.1 19.93 28.06 19.89 28.05 Z M20.21 28.1 C20.17 28.09
							 20.13 28.13 20.13 28.17 L20.13 28.5 C20.13 28.55 20.17 28.59 20.21 28.6 C20.26 28.6 20.29 28.57 20.29
							 28.52 L20.29 28.2 C20.29 28.15 20.26 28.11 20.21 28.1 Z M20.53 28.15 C20.49 28.14 20.45 28.17 20.45
							 28.22 L20.45 28.55 C20.45 28.6 20.49 28.64 20.53 28.65 C20.58 28.65 20.62 28.62 20.62 28.57 L20.62 28.25
							 C20.62 28.2 20.58 28.16 20.53 28.15 Z M20.86 28.2 C20.81 28.19 20.78 28.22 20.78 28.27 L20.78 28.6 C20.78
							 28.64 20.81 28.69 20.86 28.69 C20.9 28.7 20.94 28.67 20.94 28.62 L20.94 28.29 C20.94 28.25 20.9 28.2
							 20.86 28.2 Z M21.18 28.25 C21.14 28.24 21.1 28.27 21.1 28.32 L21.1 28.65 C21.1 28.69 21.14 28.74 21.18
							 28.74 C21.23 28.75 21.27 28.72 21.27 28.67 L21.27 28.34 C21.27 28.3 21.23 28.25 21.18 28.25 Z M21.51
							 28.3 C21.46 28.29 21.43 28.32 21.43 28.37 L21.43 28.7 C21.43 28.74 21.46 28.79 21.51 28.79 C21.55 28.8
							 21.59 28.77 21.59 28.72 L21.59 28.39 C21.59 28.35 21.56 28.3 21.51 28.3 Z" class="st8"/>
			</g>
		</g>
		<g id="shape13-28" v:mID="13" v:groupContext="shape" transform="translate(1.13862,-25.015)">
			<title>工作表.13</title>
			<path d="M0.1 28.8 C0.1 28.71 0.16 28.65 0.24 28.66 L0.23 28.55 C0.1 28.54 0 28.64 0 28.79 L0.1 28.8 Z" class="st4"/>
		</g>
		<g id="shape14-30" v:mID="14" v:groupContext="shape" transform="translate(23.3864,-22.5865)">
			<title>工作表.14</title>
			<path d="M0 28.6 C0.09 28.61 0.17 28.69 0.17 28.79 L0.28 28.8 C0.28 28.64 0.15 28.5 0 28.48 L0 28.6 Z" class="st4"/>
		</g>
		<g id="group15-32" transform="translate(1.70802,-0.451997)" v:mID="15" v:groupContext="group">
			<title>工作表.15</title>
			<g id="shape16-33" v:mID="16" v:groupContext="shape">
				<title>工作表.16</title>
				<path d="M21.64 28.8 L0.01 24.76 L0 23.95 L21.64 27.92 L21.64 28.8 Z" class="st9"/>
			</g>
			<g id="shape17-35" v:mID="17" v:groupContext="shape" transform="translate(8.90028,-2.58565)">
				<title>工作表.17</title>
				<path d="M0.24 28.68 C0.24 28.75 0.19 28.8 0.12 28.79 C0.05 28.78 0 28.71 0 28.64 C0 28.57 0.05 28.52 0.12 28.54
							 C0.18 28.55 0.24 28.61 0.24 28.68 Z" class="st10"/>
			</g>
			<g id="shape18-37" v:mID="18" v:groupContext="shape" transform="translate(10.4214,-2.30269)">
				<title>工作表.18</title>
				<path d="M0.24 28.68 C0.24 28.75 0.19 28.8 0.12 28.79 C0.06 28.78 0 28.71 0 28.64 C0 28.57 0.05 28.52 0.12 28.53
							 C0.19 28.55 0.24 28.61 0.24 28.68 Z" class="st10"/>
			</g>
			<g id="group19-39" transform="translate(8.90063,-2.31524)" v:mID="19" v:groupContext="group">
				<title>工作表.19</title>
				<g id="shape20-40" v:mID="20" v:groupContext="shape">
					<title>工作表.20</title>
					<path d="M1.76 28.7 C1.76 28.76 1.71 28.8 1.66 28.79 L0.11 28.5 C0.05 28.49 0 28.43 0 28.37 C-0 28.31 0.05 28.27
								 0.1 28.28 L1.65 28.56 C1.71 28.57 1.76 28.63 1.76 28.7 Z" class="st10"/>
				</g>
				<g id="shape21-42" v:mID="21" v:groupContext="shape" transform="translate(0.00731788,-0.00418164)">
					<title>工作表.21</title>
					<path d="M1.75 28.7 C1.75 28.76 1.7 28.8 1.64 28.79 L0.1 28.5 C0.05 28.49 0 28.44 0 28.37 C0 28.31 0.05 28.27
								 0.1 28.28 L1.64 28.57 C1.7 28.58 1.75 28.64 1.75 28.7 Z" class="st11"/>
				</g>
				<g id="shape22-44" v:mID="22" v:groupContext="shape" transform="translate(0.0153327,-0.00731788)">
					<title>工作表.22</title>
					<path d="M1.73 28.7 C1.73 28.76 1.69 28.8 1.63 28.79 L0.1 28.51 C0.05 28.5 0 28.44 0 28.38 C-0 28.32 0.04 28.28
								 0.1 28.29 L1.63 28.57 C1.68 28.58 1.73 28.64 1.73 28.7 Z" class="st12"/>
				</g>
				<g id="shape23-46" v:mID="23" v:groupContext="shape" transform="translate(0.0226506,-0.0108026)">
					<title>工作表.23</title>
					<path d="M1.72 28.7 C1.72 28.76 1.67 28.8 1.61 28.79 L0.1 28.51 C0.05 28.5 0 28.44 0 28.38 C-0 28.33 0.04 28.29
								 0.1 28.3 L1.61 28.58 C1.67 28.59 1.71 28.64 1.72 28.7 Z" class="st13"/>
				</g>
				<g id="shape24-48" v:mID="24" v:groupContext="shape" transform="translate(0.0306654,-0.0146358)">
					<title>工作表.24</title>
					<path d="M1.7 28.7 C1.7 28.76 1.66 28.8 1.6 28.79 L0.1 28.51 C0.05 28.5 0 28.45 0 28.39 C0 28.33 0.04 28.29 0.1
								 28.3 L1.6 28.58 C1.65 28.59 1.7 28.65 1.7 28.7 Z" class="st14"/>
				</g>
				<g id="shape25-50" v:mID="25" v:groupContext="shape" transform="translate(0.0390287,-0.0181205)">
					<title>工作表.25</title>
					<path d="M1.68 28.71 C1.68 28.76 1.64 28.8 1.59 28.79 L0.1 28.51 C0.04 28.5 0 28.45 0 28.39 C0 28.34 0.04 28.3
								 0.1 28.31 L1.59 28.59 C1.64 28.6 1.68 28.65 1.68 28.71 Z" class="st15"/>
				</g>
				<g id="shape26-52" v:mID="26" v:groupContext="shape" transform="translate(0.0463466,-0.0212567)">
					<title>工作表.26</title>
					<path d="M1.67 28.71 C1.67 28.76 1.63 28.8 1.57 28.79 L0.1 28.52 C0.04 28.51 0 28.45 0 28.4 C0 28.34 0.04 28.31
								 0.1 28.32 L1.57 28.59 C1.62 28.6 1.67 28.65 1.67 28.71 Z" class="st16"/>
				</g>
				<g id="shape27-54" v:mID="27" v:groupContext="shape" transform="translate(0.0529675,-0.0250899)">
					<title>工作表.27</title>
					<path d="M1.65 28.71 C1.65 28.76 1.61 28.8 1.56 28.79 L0.09 28.52 C0.04 28.51 0 28.46 0 28.4 C-0 28.35 0.04 28.31
								 0.09 28.32 L1.56 28.6 C1.61 28.6 1.65 28.66 1.65 28.71 Z" class="st17"/>
				</g>
				<g id="shape28-56" v:mID="28" v:groupContext="shape" transform="translate(0.0602854,-0.0285746)">
					<title>工作表.28</title>
					<path d="M1.64 28.71 C1.64 28.76 1.6 28.8 1.55 28.79 L0.09 28.52 C0.04 28.51 0 28.46 0 28.41 C-0 28.36 0.04 28.32
								 0.09 28.33 L1.55 28.6 C1.6 28.61 1.64 28.66 1.64 28.71 Z" class="st18"/>
				</g>
				<g id="shape29-58" v:mID="29" v:groupContext="shape" transform="translate(0.0683002,-0.0320593)">
					<title>工作表.29</title>
					<path d="M1.62 28.71 C1.62 28.77 1.58 28.8 1.53 28.79 L0.09 28.52 C0.04 28.51 0 28.46 0 28.41 C0 28.36 0.04 28.33
								 0.09 28.34 L1.53 28.6 C1.58 28.61 1.62 28.66 1.62 28.71 Z" class="st19"/>
				</g>
				<g id="shape30-60" v:mID="30" v:groupContext="shape" transform="translate(0.0759665,-0.0351955)">
					<title>工作表.30</title>
					<path d="M1.61 28.72 C1.61 28.77 1.57 28.8 1.52 28.79 L0.09 28.53 C0.04 28.52 0 28.47 0 28.42 C0 28.37 0.04 28.34
								 0.09 28.34 L1.52 28.61 C1.57 28.62 1.61 28.67 1.61 28.72 Z" class="st20"/>
				</g>
				<g id="shape31-62" v:mID="31" v:groupContext="shape" transform="translate(0.0843298,-0.0386802)">
					<title>工作表.31</title>
					<path d="M1.59 28.72 C1.59 28.77 1.55 28.8 1.51 28.79 L0.09 28.53 C0.04 28.52 0 28.47 0 28.42 C0 28.37 0.04 28.34
								 0.09 28.35 L1.5 28.61 C1.55 28.62 1.59 28.67 1.59 28.72 Z" class="st21"/>
				</g>
				<g id="shape32-64" v:mID="32" v:groupContext="shape" transform="translate(0.0916477,-0.0418164)">
					<title>工作表.32</title>
					<path d="M1.58 28.72 C1.58 28.77 1.54 28.8 1.49 28.79 L0.09 28.53 C0.04 28.52 0 28.48 0 28.43 C0 28.38 0.04 28.35
								 0.08 28.36 L1.49 28.62 C1.54 28.63 1.58 28.67 1.58 28.72 Z" class="st22"/>
				</g>
				<g id="shape33-66" v:mID="33" v:groupContext="shape" transform="translate(0.099314,-0.0456496)">
					<title>工作表.33</title>
					<path d="M1.56 28.72 C1.56 28.77 1.53 28.8 1.48 28.79 L0.08 28.53 C0.04 28.52 0 28.48 0 28.43 C-0 28.39 0.04
								 28.36 0.08 28.36 L1.48 28.62 C1.52 28.63 1.56 28.68 1.56 28.72 Z" class="st23"/>
				</g>
				<g id="shape34-68" v:mID="34" v:groupContext="shape" transform="translate(0.10698,-0.0494828)">
					<title>工作表.34</title>
					<path d="M1.55 28.72 C1.55 28.77 1.51 28.8 1.46 28.79 L0.08 28.54 C0.04 28.53 0 28.48 0 28.44 C-0 28.39 0.04
								 28.36 0.08 28.37 L1.46 28.63 C1.51 28.64 1.55 28.68 1.55 28.72 Z" class="st24"/>
				</g>
				<g id="shape35-70" v:mID="35" v:groupContext="shape" transform="translate(0.11395,-0.0529675)">
					<title>工作表.35</title>
					<path d="M1.53 28.73 C1.53 28.77 1.5 28.8 1.45 28.79 L0.08 28.54 C0.04 28.53 0 28.49 0 28.44 C-0 28.4 0.04 28.37
								 0.08 28.38 L1.45 28.63 C1.49 28.64 1.53 28.68 1.53 28.73 Z" class="st25"/>
				</g>
				<g id="shape36-72" v:mID="36" v:groupContext="shape" transform="translate(0.121965,-0.0561037)">
					<title>工作表.36</title>
					<path d="M1.52 28.73 C1.52 28.77 1.48 28.8 1.44 28.79 L0.08 28.54 C0.04 28.53 0 28.49 0 28.45 C0 28.4 0.03 28.38
								 0.08 28.38 L1.44 28.64 C1.48 28.64 1.52 28.69 1.52 28.73 Z" class="st26"/>
				</g>
				<g id="shape37-74" v:mID="37" v:groupContext="shape" transform="translate(0.129631,-0.0602854)">
					<title>工作表.37</title>
					<path d="M1.5 28.73 C1.5 28.77 1.47 28.8 1.42 28.79 L0.08 28.54 C0.04 28.53 0 28.49 0 28.45 C0 28.41 0.03 28.38
								 0.08 28.39 L1.42 28.64 C1.47 28.65 1.5 28.69 1.5 28.73 Z" class="st27"/>
				</g>
				<g id="shape38-76" v:mID="38" v:groupContext="shape" transform="translate(0.136949,-0.0637701)">
					<title>工作表.38</title>
					<path d="M1.49 28.73 C1.49 28.77 1.45 28.8 1.41 28.79 L0.08 28.54 C0.03 28.54 0 28.5 0 28.46 C0 28.42 0.03 28.39
								 0.07 28.4 L1.41 28.65 C1.45 28.65 1.48 28.69 1.49 28.73 Z" class="st28"/>
				</g>
				<g id="shape39-78" v:mID="39" v:groupContext="shape" transform="translate(0.144964,-0.0665578)">
					<title>工作表.39</title>
					<path d="M1.47 28.73 C1.47 28.77 1.44 28.8 1.4 28.79 L0.07 28.55 C0.03 28.54 0 28.5 0 28.46 C0 28.42 0.03 28.4
								 0.07 28.41 L1.4 28.65 C1.44 28.66 1.47 28.7 1.47 28.73 Z" class="st29"/>
				</g>
				<g id="shape40-80" v:mID="40" v:groupContext="shape" transform="translate(0.152282,-0.0696941)">
					<title>工作表.40</title>
					<path d="M1.45 28.74 C1.45 28.77 1.42 28.8 1.38 28.79 L0.07 28.55 C0.03 28.54 0 28.5 0 28.47 C-0 28.43 0.03 28.4
								 0.07 28.41 L1.38 28.65 C1.42 28.66 1.45 28.7 1.45 28.74 Z" class="st30"/>
				</g>
				<g id="shape41-82" v:mID="41" v:groupContext="shape" transform="translate(0.160645,-0.0731788)">
					<title>工作表.41</title>
					<path d="M1.44 28.74 C1.44 28.78 1.41 28.8 1.37 28.79 L0.07 28.55 C0.03 28.54 0 28.51 0 28.47 C0 28.44 0.03 28.41
								 0.07 28.42 L1.37 28.66 C1.41 28.67 1.44 28.7 1.44 28.74 Z" class="st31"/>
				</g>
				<g id="shape42-84" v:mID="42" v:groupContext="shape" transform="translate(0.16866,-0.0770119)">
					<title>工作表.42</title>
					<path d="M1.42 28.74 C1.42 28.78 1.39 28.8 1.36 28.79 L0.07 28.55 C0.03 28.55 0 28.51 0 28.48 C0 28.44 0.03 28.42
								 0.07 28.43 L1.35 28.66 C1.39 28.67 1.42 28.71 1.42 28.74 Z" class="st32"/>
				</g>
				<g id="shape43-86" v:mID="43" v:groupContext="shape" transform="translate(0.175978,-0.0808451)">
					<title>工作表.43</title>
					<path d="M1.41 28.74 C1.41 28.78 1.38 28.8 1.34 28.79 L0.07 28.56 C0.03 28.55 0 28.52 0 28.48 C0 28.45 0.03 28.43
								 0.07 28.43 L1.34 28.67 C1.38 28.68 1.41 28.71 1.41 28.74 Z" class="st33"/>
				</g>
				<g id="shape44-88" v:mID="44" v:groupContext="shape" transform="translate(0.182598,-0.0843298)">
					<title>工作表.44</title>
					<path d="M1.39 28.75 C1.39 28.78 1.37 28.8 1.33 28.79 L0.07 28.56 C0.03 28.55 0 28.52 0 28.49 C-0 28.45 0.03
								 28.43 0.06 28.44 L1.33 28.67 C1.36 28.68 1.39 28.71 1.39 28.75 Z" class="st34"/>
				</g>
				<g id="shape45-90" v:mID="45" v:groupContext="shape" transform="translate(0.189916,-0.0878145)">
					<title>工作表.45</title>
					<path d="M1.38 28.75 C1.38 28.78 1.35 28.8 1.32 28.79 L0.06 28.56 C0.03 28.55 0 28.52 0 28.49 C0 28.46 0.03 28.44
								 0.06 28.45 L1.32 28.68 C1.35 28.68 1.38 28.72 1.38 28.75 Z" class="st35"/>
				</g>
				<g id="shape46-92" v:mID="46" v:groupContext="shape" transform="translate(0.197931,-0.0909507)">
					<title>工作表.46</title>
					<path d="M1.36 28.75 C1.36 28.78 1.34 28.8 1.3 28.79 L0.06 28.56 C0.03 28.56 0 28.53 0 28.5 C0 28.47 0.03 28.45
								 0.06 28.45 L1.3 28.68 C1.33 28.69 1.36 28.72 1.36 28.75 Z" class="st36"/>
				</g>
				<g id="shape47-94" v:mID="47" v:groupContext="shape" transform="translate(0.205946,-0.0947839)">
					<title>工作表.47</title>
					<path d="M1.35 28.75 C1.35 28.78 1.32 28.8 1.29 28.79 L0.06 28.57 C0.03 28.56 0 28.53 0 28.5 C0 28.47 0.03 28.45
								 0.06 28.46 L1.29 28.69 C1.32 28.69 1.35 28.72 1.35 28.75 Z" class="st37"/>
				</g>
				<g id="shape48-96" v:mID="48" v:groupContext="shape" transform="translate(0.213961,-0.0979202)">
					<title>工作表.48</title>
					<path d="M1.33 28.75 C1.33 28.78 1.31 28.8 1.27 28.79 L0.06 28.57 C0.03 28.56 0 28.53 0 28.51 C0 28.48 0.03 28.46
								 0.06 28.47 L1.27 28.69 C1.31 28.7 1.33 28.73 1.33 28.75 Z" class="st38"/>
				</g>
				<g id="shape49-98" v:mID="49" v:groupContext="shape" transform="translate(0.221279,-0.101753)">
					<title>工作表.49</title>
					<path d="M1.32 28.76 C1.32 28.78 1.29 28.8 1.26 28.79 L0.06 28.57 C0.03 28.56 0 28.54 0 28.51 C-0 28.48 0.02
								 28.47 0.06 28.47 L1.26 28.7 C1.29 28.7 1.32 28.73 1.32 28.76 Z" class="st39"/>
				</g>
				<g id="shape50-100" v:mID="50" v:groupContext="shape" transform="translate(0.228945,-0.10489)">
					<title>工作表.50</title>
					<path d="M1.3 28.76 C1.3 28.78 1.28 28.8 1.25 28.79 L0.05 28.57 C0.02 28.57 0 28.54 0 28.52 C0 28.49 0.02 28.47
								 0.05 28.48 L1.25 28.7 C1.28 28.71 1.3 28.73 1.3 28.76 Z" class="st40"/>
				</g>
				<g id="shape51-102" v:mID="51" v:groupContext="shape" transform="translate(0.236611,-0.108374)">
					<title>工作表.51</title>
					<path d="M1.29 28.76 C1.29 28.78 1.26 28.8 1.23 28.79 L0.05 28.58 C0.02 28.57 0 28.55 0 28.52 C-0 28.5 0.02 28.48
								 0.05 28.49 L1.23 28.71 C1.26 28.71 1.29 28.73 1.29 28.76 Z" class="st41"/>
				</g>
				<g id="shape52-104" v:mID="52" v:groupContext="shape" transform="translate(0.243581,-0.111859)">
					<title>工作表.52</title>
					<path d="M1.27 28.76 C1.27 28.79 1.25 28.8 1.22 28.8 L0.05 28.58 C0.02 28.57 0 28.55 0 28.53 C0 28.5 0.02 28.49
								 0.05 28.49 L1.22 28.71 C1.25 28.71 1.27 28.74 1.27 28.76 Z" class="st42"/>
				</g>
				<g id="shape53-106" v:mID="53" v:groupContext="shape" transform="translate(0.251247,-0.115692)">
					<title>工作表.53</title>
					<path d="M1.26 28.76 C1.26 28.79 1.23 28.8 1.21 28.8 L0.05 28.58 C0.02 28.58 0 28.55 0 28.53 C0 28.51 0.02 28.5
								 0.05 28.5 L1.21 28.71 C1.23 28.72 1.26 28.74 1.26 28.76 Z" class="st43"/>
				</g>
				<g id="shape54-108" v:mID="54" v:groupContext="shape" transform="translate(0.259262,-0.119177)">
					<title>工作表.54</title>
					<path d="M1.24 28.77 C1.24 28.79 1.22 28.8 1.19 28.8 L0.05 28.58 C0.02 28.58 0 28.56 0 28.54 C0 28.51 0.02 28.5
								 0.05 28.51 L1.19 28.72 C1.22 28.72 1.24 28.74 1.24 28.77 Z" class="st44"/>
				</g>
				<g id="shape55-110" v:mID="55" v:groupContext="shape" transform="translate(0.26658,-0.122662)">
					<title>工作表.55</title>
					<path d="M1.22 28.77 C1.23 28.79 1.2 28.8 1.18 28.8 L0.05 28.58 C0.02 28.58 0 28.56 0 28.54 C-0 28.52 0.02 28.51
								 0.05 28.51 L1.18 28.72 C1.2 28.73 1.22 28.75 1.22 28.77 Z" class="st45"/>
				</g>
				<g id="shape56-112" v:mID="56" v:groupContext="shape" transform="translate(0.274595,-0.126146)">
					<title>工作表.56</title>
					<path d="M1.21 28.77 C1.21 28.79 1.19 28.8 1.17 28.8 L0.04 28.59 C0.02 28.58 0 28.56 0 28.55 C0 28.53 0.02 28.52
								 0.04 28.52 L1.16 28.73 C1.19 28.73 1.21 28.75 1.21 28.77 Z" class="st46"/>
				</g>
				<g id="shape57-114" v:mID="57" v:groupContext="shape" transform="translate(0.281912,-0.129631)">
					<title>工作表.57</title>
					<path d="M1.19 28.77 C1.19 28.79 1.18 28.8 1.15 28.8 L0.04 28.59 C0.02 28.59 0 28.57 0 28.55 C0 28.53 0.02 28.52
								 0.04 28.53 L1.15 28.73 C1.17 28.74 1.19 28.75 1.19 28.77 Z" class="st47"/>
				</g>
				<g id="shape58-116" v:mID="58" v:groupContext="shape" transform="translate(0.290624,-0.133116)">
					<title>工作表.58</title>
					<path d="M1.18 28.77 C1.18 28.79 1.16 28.8 1.14 28.8 L0.04 28.59 C0.02 28.59 0 28.57 0 28.56 C0 28.54 0.02 28.53
								 0.04 28.53 L1.14 28.74 C1.16 28.74 1.18 28.76 1.18 28.77 Z" class="st48"/>
				</g>
				<g id="shape59-118" v:mID="59" v:groupContext="shape" transform="translate(0.298291,-0.136949)">
					<title>工作表.59</title>
					<path d="M1.16 28.78 C1.16 28.79 1.15 28.8 1.12 28.8 L0.04 28.6 C0.02 28.59 0 28.58 0 28.56 C-0 28.55 0.02 28.54
								 0.04 28.54 L1.12 28.74 C1.15 28.75 1.16 28.76 1.16 28.78 Z" class="st49"/>
				</g>
				<g id="shape60-120" v:mID="60" v:groupContext="shape" transform="translate(0.305957,-0.140085)">
					<title>工作表.60</title>
					<path d="M1.15 28.78 C1.15 28.79 1.13 28.8 1.11 28.8 L0.04 28.6 C0.02 28.59 0 28.58 0 28.57 C-0 28.55 0.02 28.54
								 0.04 28.55 L1.11 28.75 C1.13 28.75 1.15 28.76 1.15 28.78 Z" class="st50"/>
				</g>
				<g id="shape61-122" v:mID="61" v:groupContext="shape" transform="translate(0.312229,-0.143221)">
					<title>工作表.61</title>
					<path d="M1.13 28.78 C1.13 28.79 1.12 28.8 1.1 28.8 L0.04 28.6 C0.02 28.6 0 28.58 0 28.57 C-0 28.56 0.02 28.55
								 0.04 28.55 L1.1 28.75 C1.12 28.75 1.13 28.77 1.13 28.78 Z" class="st51"/>
				</g>
			</g>
		</g>
		<g id="shape62-124" v:mID="62" v:groupContext="shape" transform="translate(8.99105,-3.04671)">
			<title>工作表.62</title>
			<path d="M5.03 28.8 L0 27.88 L0 27.69 L5.03 28.61 L5.03 28.8 Z" class="st52"/>
		</g>
		<g id="shape63-128" v:mID="63" v:groupContext="shape" transform="translate(1.37418,-1.3277)">
			<title>工作表.63</title>
			<path d="M22.06 10.42 L22.06 10.3 L0 7.69 L0 7.81 L7.3 8.67 L7.49 26.03 L0.3 24.71 L0.3 24.81 L7.59 26.15 L7.56 23.32
						 L12.66 24.2 L12.68 27.09 L22.02 28.8 L22.02 28.69 L12.78 27 L12.67 9.31 L22.06 10.42 Z M12.66 24.1 L7.56
						 23.22 L7.4 8.68 L12.57 9.3 L12.66 24.1 Z" class="st53"/>
		</g>
		<g id="shape64-130" v:mID="64" v:groupContext="shape" transform="translate(1.37627,-21.2773)">
			<title>工作表.64</title>
			<path d="M7.3 28.62 L0 27.76 L0 27.93 L7.3 28.8 L7.3 28.62 Z" class="st54"/>
		</g>
		<g id="shape65-132" v:mID="65" v:groupContext="shape" transform="translate(8.77534,-20.6497)">
			<title>工作表.65</title>
			<path d="M5.17 28.62 L0 28 L0 28.18 L5.17 28.8 L5.17 28.62 Z" class="st54"/>
		</g>
		<g id="shape66-134" v:mID="66" v:groupContext="shape" transform="translate(14.0449,-19.5179)">
			<title>工作表.66</title>
			<path d="M9.39 28.61 L0 27.5 L0 27.68 L9.39 28.8 L9.39 28.61 Z" class="st54"/>
		</g>
		<g id="shape67-136" v:mID="67" v:groupContext="shape" transform="translate(14.1498,-1.43503)">
			<title>工作表.67</title>
			<path d="M9.24 28.8 L0 27.11 L0 26.93 L9.24 28.62 L9.24 28.8 Z" class="st54"/>
		</g>
		<g id="shape68-138" v:mID="68" v:groupContext="shape" transform="translate(1.6669,-4.09595)">
			<title>工作表.68</title>
			<path d="M7.2 28.8 L0 27.48 L0 27.31 L7.2 28.63 L7.2 28.8 Z" class="st54"/>
		</g>
		<g id="shape69-140" v:mID="69" v:groupContext="shape" transform="translate(8.92937,-6.02996)">
			<title>工作表.69</title>
			<path d="M5.1 28.8 L0 27.92 L0 27.75 L5.1 28.62 L5.1 28.8 Z" class="st54"/>
		</g>
		<g id="shape70-142" v:mID="70" v:groupContext="shape" transform="translate(1.37209,-22.6739)">
			<title>工作表.70</title>
			<path d="M0 26.21 L22.01 28.57 L22.01 28.8 L0 26.42 L0 26.21 Z" class="st55"/>
			<path d="M0 26.21 L22.01 28.57 L22.01 28.8 L0 26.42" class="st7"/>
		</g>
		<g id="shape71-147" v:mID="71" v:groupContext="shape" transform="translate(0.14025,-4.42804)">
			<title>工作表.71</title>
			<path d="M0.23 7.86 L0 8.09 L0.37 28.36 L0.61 28.66 L1.36 28.8 L1 7.94 L0.23 7.86 Z M0.89 27.06 L0.69 27.02 C0.6 27 0.53
						 26.91 0.52 26.8 C0.52 26.7 0.6 26.63 0.69 26.65 L0.89 26.68 C0.98 26.7 1.06 26.8 1.06 26.9 C1.06 27 0.98
						 27.07 0.89 27.06 Z M0.8 21.82 L0.6 21.79 C0.51 21.77 0.43 21.68 0.43 21.57 C0.43 21.47 0.5 21.4 0.59 21.41
						 L0.79 21.44 C0.89 21.46 0.96 21.55 0.96 21.66 C0.97 21.76 0.89 21.83 0.8 21.82 Z M0.68 15.38 L0.48 15.35
						 C0.39 15.34 0.31 15.25 0.31 15.14 C0.31 15.04 0.38 14.96 0.48 14.97 L0.68 15 C0.77 15.01 0.85 15.11 0.85
						 15.21 C0.85 15.32 0.78 15.39 0.68 15.38 Z M0.59 10.03 L0.39 10.01 C0.29 10 0.22 9.9 0.21 9.8 C0.21 9.69
						 0.29 9.61 0.38 9.62 L0.58 9.65 C0.67 9.66 0.75 9.75 0.75 9.86 C0.76 9.97 0.68 10.04 0.59 10.03 Z"
					class="st8"/>
		</g>
		<g id="shape72-149" v:mID="72" v:groupContext="shape" transform="translate(23.6041,-0.12548)">
			<title>工作表.72</title>
			<path d="M0.06 6.05 L0 28.63 L0.9 28.8 L1.17 28.57 L1.25 6.47 L0.97 6.15 L0.06 6.05 Z M0.33 26.69 C0.33 26.58 0.42 26.5
						 0.53 26.52 L0.76 26.57 C0.87 26.59 0.96 26.69 0.96 26.8 C0.96 26.92 0.87 26.99 0.76 26.97 L0.53 26.93 C0.42
						 26.91 0.33 26.8 0.33 26.69 Z M0.34 21.01 C0.34 20.9 0.43 20.82 0.55 20.84 L0.78 20.87 C0.89 20.89 0.98 21
						 0.98 21.11 C0.98 21.23 0.89 21.3 0.78 21.28 L0.54 21.25 C0.43 21.23 0.34 21.12 0.34 21.01 Z M0.36 14.02
						 C0.37 13.9 0.46 13.82 0.57 13.84 L0.8 13.87 C0.92 13.89 1.01 13.99 1.01 14.11 C1.01 14.22 0.91 14.3 0.8
						 14.29 L0.57 14.25 C0.45 14.24 0.36 14.13 0.36 14.02 Z M0.38 8.21 C0.38 8.09 0.47 8.01 0.59 8.02 L0.82 8.05
						 C0.94 8.06 1.03 8.16 1.03 8.28 C1.03 8.4 0.93 8.48 0.82 8.47 L0.58 8.44 C0.47 8.43 0.38 8.32 0.38 8.21 Z"
					class="st8"/>
		</g>
		<g id="shape73-151" v:mID="73" v:groupContext="shape" transform="translate(2.452,-14.2462)">
			<title>工作表.73</title>
			<path d="M0.18 28.8 L0.13 28.79 L0 21.03 L0.05 21.03 L0.18 28.8 Z" class="st53"/>
		</g>
		<g id="shape74-153" v:mID="74" v:groupContext="shape" transform="translate(3.94276,-14.0256)">
			<title>工作表.74</title>
			<path d="M0.17 28.8 L0.12 28.79 L0 20.98 L0.05 20.99 L0.17 28.8 Z" class="st53"/>
		</g>
		<g id="shape75-155" v:mID="75" v:groupContext="shape" transform="translate(5.48335,-13.7981)">
			<title>工作表.75</title>
			<path d="M0.16 28.8 L0.11 28.79 L0 20.94 L0.05 20.95 L0.16 28.8 Z" class="st53"/>
		</g>
		<g id="shape76-157" v:mID="76" v:groupContext="shape" transform="translate(7.01696,-13.5712)">
			<title>工作表.76</title>
			<path d="M0.15 28.8 L0.1 28.79 L0 20.9 L0.05 20.9 L0.15 28.8 Z" class="st53"/>
		</g>
		<g id="shape78-159" v:mID="78" v:groupContext="shape" transform="translate(11.3314,-6.64013)">
			<title>工作表.78</title>
			<v:textBlock v:margins="rect(0,0,0,0)"/>
			<path d="M0.17 28.8 L0.12 28.79 L0 14.48 L0.05 14.49 L0.17 28.8 Z" class="st53"/>
		</g>
		<g id="shape92-161" v:mID="92" v:groupContext="shape" transform="translate(0.733695,-4.74759)">
			<title>工作表.92</title>
			<path d="M0.11 28.62 L0.33 28.66 L0.33 28.63 L0.11 28.59 L0.11 28.62 Z M0.15 28.69 L0.3 28.71 L0.3 28.68 L0.15 28.66
						 L0.15 28.69 Z M0.22 28.29 C0.1 28.27 0 28.36 0 28.49 C0 28.63 0.1 28.76 0.23 28.78 C0.35 28.8 0.44 28.71
						 0.44 28.58 C0.44 28.44 0.34 28.31 0.22 28.29 Z M0.22 28.75 C0.12 28.73 0.03 28.62 0.03 28.5 C0.03 28.38
						 0.11 28.3 0.22 28.32 C0.32 28.34 0.41 28.45 0.41 28.57 C0.41 28.69 0.33 28.77 0.22 28.75 Z M0.24 28.55 L0.23
						 28.37 L0.2 28.36 L0.21 28.54 L0.07 28.52 L0.07 28.55 L0.38 28.6 L0.38 28.57 L0.24 28.55 Z" class="st56"/>
		</g>
		<g id="shape93-163" v:mID="93" v:groupContext="shape" transform="translate(0.834054,-5.41352)">
			<title>工作表.93</title>
			<path d="M0.22 28.69 C0.22 28.62 0.17 28.56 0.11 28.55 C0.05 28.53 0 28.58 0 28.65 C0 28.71 0.05 28.78 0.11 28.79 C0.17
						 28.8 0.22 28.75 0.22 28.69 Z" class="st57"/>
		</g>
		<g id="shape94-165" v:mID="94" v:groupContext="shape" transform="translate(1.32993,-19.8262)">
			<title>工作表.94</title>
			<path d="M22.1 28.8 L0.04 26.19 L0 23.62 L22.11 26.02 L22.1 28.8 Z" class="st8"/>
		</g>
		<g id="shape95-167" v:mID="95" v:groupContext="shape" transform="translate(3.26045,-22.9161)">
			<title>工作表.95</title>
			<path d="M0.4 28.65 C0.4 28.74 0.34 28.8 0.26 28.79 L0.17 28.78 C0.09 28.77 0.02 28.69 0.02 28.6 L0 27.4 C-0 27.31 0.06
						 27.24 0.14 27.25 L0.24 27.26 C0.32 27.27 0.38 27.35 0.38 27.44 L0.4 28.65 Z" class="st58"/>
		</g>
		<g id="shape96-169" v:mID="96" v:groupContext="shape" transform="translate(8.44325,-22.3178)">
			<title>工作表.96</title>
			<path d="M0.41 28.64 C0.41 28.73 0.34 28.8 0.26 28.79 L0.17 28.78 C0.08 28.77 0.02 28.69 0.01 28.6 L0 27.37 C0 27.28
						 0.07 27.21 0.15 27.22 L0.25 27.23 C0.33 27.24 0.4 27.32 0.4 27.41 L0.41 28.64 Z" class="st58"/>
		</g>
		<g id="shape97-171" v:mID="97" v:groupContext="shape" transform="translate(8.93285,-3.24011)">
			<title>工作表.97</title>
			<path d="M5.09 28.8 L0.03 27.88 L0 25.24 L5.07 26.11 L5.09 28.8 Z" class="st8"/>
		</g>
		<g id="shape98-173" v:mID="98" v:groupContext="shape" transform="translate(11.2868,-4.37856)">
			<title>工作表.98</title>
			<path d="M0.41 28.65 C0.41 28.74 0.34 28.8 0.26 28.79 L0.16 28.77 C0.08 28.75 0.01 28.67 0.01 28.58 L0 27.38 C0 27.29
						 0.07 27.23 0.15 27.24 L0.25 27.26 C0.33 27.27 0.4 27.36 0.4 27.45 L0.41 28.65 Z" class="st58"/>
		</g>
		<g id="shape99-175" v:mID="99" v:groupContext="shape" transform="translate(13.8351,-21.6951)">
			<title>工作表.99</title>
			<path d="M0.42 28.64 C0.42 28.73 0.35 28.8 0.26 28.79 L0.16 28.78 C0.08 28.77 0.01 28.69 0.01 28.59 L0 27.34 C-0 27.25
						 0.07 27.18 0.16 27.19 L0.26 27.2 C0.34 27.21 0.41 27.29 0.41 27.38 L0.42 28.64 Z" class="st58"/>
		</g>
		<g id="shape100-177" v:mID="100" v:groupContext="shape" transform="translate(19.4469,-21.0469)">
			<title>工作表.100</title>
			<path d="M0.43 28.64 C0.43 28.73 0.36 28.8 0.27 28.79 L0.16 28.78 C0.07 28.77 0 28.68 0 28.59 L0 27.31 C0 27.22 0.07
						 27.15 0.16 27.16 L0.27 27.17 C0.36 27.18 0.43 27.26 0.43 27.36 L0.43 28.64 Z" class="st58"/>
		</g>
		<g id="group1-179" transform="translate(2.59906,-1.84239)" v:mID="1" v:groupContext="group">
			<title>工作表.1</title>
			<g id="shape77-180" v:mID="77" v:groupContext="shape" transform="translate(13.1708,-10.4346)">
				<title>工作表.77</title>
				<path d="M0.09 28.8 L0.04 28.79 L0 20.65 L0.06 20.65 L0.09 28.8 Z" class="st53"/>
			</g>
			<g id="shape79-182" v:mID="79" v:groupContext="shape" transform="translate(14.8525,-10.1858)">
				<title>工作表.79</title>
				<path d="M0.08 28.8 L0.02 28.79 L0 20.6 L0.06 20.6 L0.08 28.8 Z" class="st53"/>
			</g>
			<g id="shape80-184" v:mID="80" v:groupContext="shape" transform="translate(16.5283,-9.93837)">
				<title>工作表.80</title>
				<path d="M0.07 28.8 L0.01 28.79 L0 20.55 L0.06 20.56 L0.07 28.8 Z" class="st53"/>
			</g>
			<g id="shape81-186" v:mID="81" v:groupContext="shape" transform="translate(19.5157,-9.49547)">
				<title>工作表.81</title>
				<path d="M0.06 28.8 L0 28.79 L0.01 20.46 L0.07 20.47 L0.06 28.8 Z" class="st53"/>
			</g>
			<g id="shape82-188" v:mID="82" v:groupContext="shape" transform="translate(18.2727,-9.6805)">
				<title>工作表.82</title>
				<path d="M0.06 28.8 L0 28.79 L0 20.5 L0.06 20.51 L0.06 28.8 Z" class="st53"/>
			</g>
			<g id="shape83-190" v:mID="83" v:groupContext="shape" transform="translate(1.40513E-016,-3.53872)">
				<title>工作表.83</title>
				<path d="M0.17 28.8 L0.13 28.79 L0 21.15 L0.05 21.16 L0.17 28.8 Z" class="st53"/>
			</g>
			<g id="shape84-192" v:mID="84" v:groupContext="shape" transform="translate(1.47995,-3.27039)">
				<title>工作表.84</title>
				<path d="M0.17 28.8 L0.12 28.79 L0 21.11 L0.05 21.12 L0.17 28.8 Z" class="st53"/>
			</g>
			<g id="shape85-194" v:mID="85" v:groupContext="shape" transform="translate(3.00869,-2.99301)">
				<title>工作表.85</title>
				<path d="M0.16 28.8 L0.11 28.79 L0 21.07 L0.05 21.07 L0.16 28.8 Z" class="st53"/>
			</g>
			<g id="shape86-196" v:mID="86" v:groupContext="shape" transform="translate(4.53011,-2.71702)">
				<title>工作表.86</title>
				<path d="M0.15 28.8 L0.1 28.79 L0 21.02 L0.05 21.03 L0.15 28.8 Z" class="st53"/>
			</g>
			<g id="shape87-198" v:mID="87" v:groupContext="shape" transform="translate(13.2126,-1.14229)">
				<title>工作表.87</title>
				<path d="M0.09 28.8 L0.04 28.79 L0 20.78 L0.06 20.79 L0.09 28.8 Z" class="st53"/>
			</g>
			<g id="shape88-200" v:mID="88" v:groupContext="shape" transform="translate(14.8807,-0.840162)">
				<title>工作表.88</title>
				<path d="M0.08 28.8 L0.02 28.79 L0 20.73 L0.06 20.74 L0.08 28.8 Z" class="st53"/>
			</g>
			<g id="shape89-202" v:mID="89" v:groupContext="shape" transform="translate(16.5422,-0.538735)">
				<title>工作表.89</title>
				<path d="M0.07 28.8 L0.01 28.79 L0 20.69 L0.06 20.7 L0.07 28.8 Z" class="st53"/>
			</g>
			<g id="shape90-204" v:mID="90" v:groupContext="shape" transform="translate(19.5039,3.55271E-015)">
				<title>工作表.90</title>
				<path d="M0.06 28.8 L0 28.79 L0.01 20.61 L0.07 20.61 L0.06 28.8 Z" class="st53"/>
			</g>
			<g id="shape91-206" v:mID="91" v:groupContext="shape" transform="translate(18.2713,-0.225112)">
				<title>工作表.91</title>
				<path d="M0.06 28.8 L0 28.79 L0 20.64 L0.06 20.65 L0.06 28.8 Z" class="st53"/>
			</g>
		</g>
	</g>
</svg>
