<?xml version="1.0" encoding="utf-8"?>
<!-- Generator: Adobe Illustrator 15.0.0, SVG Export Plug-In . SVG Version: 6.00 Build 0)  -->
<!DOCTYPE svg PUBLIC "-//W3C//DTD SVG 1.1//EN" "http://www.w3.org/Graphics/SVG/1.1/DTD/svg11.dtd">
<svg version="1.1"
	 id="图层_1" xmlns:v="http://schemas.microsoft.com/visio/2003/SVGExtensions/" xmlns:ev="http://www.w3.org/2001/xml-events"
	 xmlns="http://www.w3.org/2000/svg" xmlns:xlink="http://www.w3.org/1999/xlink" x="0px" y="0px" width="60.147px"
	 height="47.786px" viewBox="68.111 54.094 60.147 47.786" enable-background="new 68.111 54.094 60.147 47.786"
	 xml:space="preserve">
<v:documentProperties  v:metric="true" v:langID="2052" v:viewMarkup="false">
	<v:userDefs>
		<v:ud  v:nameU="msvSubprocessMaster" v:val="VT4(Rectangle)" v:prompt=""></v:ud>
		<v:ud  v:nameU="msvNoAutoConnect" v:val="VT0(1):26"></v:ud>
	</v:userDefs>
</v:documentProperties>
<g>
	<v:userDefs>
		<v:ud  v:nameU="msvThemeOrder" v:val="VT0(0):26"></v:ud>
	</v:userDefs>
	<title>页-1</title>
	
		<v:pageProperties  v:drawingScale="0.0393701" v:shadowOffsetX="8.50394" v:shadowOffsetY="-8.50394" v:pageScale="0.0393701" v:drawingUnits="24">
		</v:pageProperties>
	<g id="group89-1" transform="translate(415.405,-232.156)">
		<title>Í¼²ã_x0020_1</title>
		<g id="shape90-2" transform="translate(8.33084,0)">
			<title>path2424</title>
			<path fill="#78749A" d="M-302.167,320.26c6.983,12.787-9.737,11.703-14.854,10.722c-5.507,4.229-12.489,2.852-15.243-1.378
				c-4.427,3.837-17.901,4.426-15.146-7.082c-5.608-2.852-8.362-12.785,1.376-17.015c-3.245-8.361,7.866-12.883,13.77-8.459
				c2.754-9.934,14.851-7.573,17.703,0.592c6.884-4.328,21.047,2.164,12.395,8.456C-293.809,310.325-293.809,317.408-302.167,320.26
				z"/>
		</g>
		<g id="shape91-4" transform="translate(5.44709,-5.44709)">
			<title>path2426</title>
			
				<linearGradient id="SVGID_1_" gradientUnits="userSpaceOnUse" x1="-833.73" y1="386.4175" x2="-833.423" y2="386.4175" gradientTransform="matrix(-148.8507 -82.7173 -108.769 113.1989 -82371.7656 -112376.0625)">
				<stop  offset="0" style="stop-color:#D1D4DA"/>
				<stop  offset="1" style="stop-color:#FFFFFF"/>
				<stop  offset="1" style="stop-color:#FFFFFF"/>
			</linearGradient>
			<path fill="url(#SVGID_1_)" d="M-300.168,324.035c6.982,12.689-9.738,11.704-14.855,10.721
				c-5.506,4.23-12.489,2.852-15.243-1.377c-4.427,3.837-17.901,4.426-15.146-7.082c-5.607-2.852-8.36-12.785,1.376-17.015
				c-3.245-8.361,7.868-12.883,13.77-8.459c2.754-9.934,14.852-7.573,17.702,0.592c6.887-4.328,21.049,2.164,12.396,8.457
				C-291.81,314.101-291.81,321.182-300.168,324.035z"/>
		</g>
		<g id="shape92-8" transform="translate(0,-5.44709)">
			<title>path2428</title>
			
				<linearGradient id="SVGID_2_" gradientUnits="userSpaceOnUse" x1="-817.658" y1="386.522" x2="-817.3511" y2="386.522" gradientTransform="matrix(-112.8713 -117.3008 -148.9811 88.8696 -35006.5 -129928.7578)">
				<stop  offset="0" style="stop-color:#A9A9C8"/>
				<stop  offset="0.25" style="stop-color:#C9C9DA"/>
				<stop  offset="1" style="stop-color:#FFFFFF"/>
				<stop  offset="1" style="stop-color:#FFFFFF"/>
			</linearGradient>
			<path fill="url(#SVGID_2_)" stroke="#B1B5BB" stroke-width="0.7425" stroke-miterlimit="3" d="M-294.329,323.837
				c5.999,12.098-9.637,11.803-15.148,10.82c-5.801,4.328-12.195,3.637-15.145-0.691c-4.623,3.936-17.707,1.969-16.426-8.751
				c-5.902-2.953-8.95-14.555,1.277-18.884c-3.44-8.557,7.576-12.591,13.868-8.066c2.655-8.163,14.752-7.671,17.804,0.691
				c7.278-4.427,21.048,3.342,14.457,10.031C-289.705,311.052-285.478,320.986-294.329,323.837z"/>
		</g>
	</g>
	<g id="shape46-12" transform="translate(459.573,-260.114)">
		<title>工作表.46</title>
		<g id="shadow46-13" transform="matrix(1,0,0,1,0.345598,1.97279)">
			
				<ellipse fill="none" stroke="#5B9BD5" stroke-linecap="square" stroke-miterlimit="3" stroke-opacity="0.22" cx="-361.998" cy="338.139" rx="18.85" ry="15.08"/>
		</g>
		
			<ellipse fill="none" stroke="#5B9BD5" stroke-linecap="square" stroke-miterlimit="3" cx="-361.759" cy="339.505" rx="18.851" ry="15.08"/>
	</g>
	<g id="group93-17" transform="translate(505.134,-347.244)">
		<title>工作表.93</title>
		<g id="group94-18" transform="translate(5.9952E-015,-2.69124)">
			<title>g2432</title>
			<g id="shape95-19">
				<title>path2434</title>
				<path fill="#78749A" stroke="#78749A" stroke-miterlimit="3" d="M-410.898,416.837l-1.195-2.573l-0.091-0.184v-0.181v-3.122
					v-0.184l0.091-0.185l0.095-0.181l0.091-0.092l0.185-0.184l0.181-0.092h0.185l0.184-0.093h4.222l0.185,0.093l3.214,0.918h-0.276
					h-5.785h-0.273l-0.275,0.091l-0.185,0.092l-0.276,0.185l-0.092,0.181l-0.181,0.277l-0.093,0.184v0.277v4.22v0.277
					L-410.898,416.837z"/>
			</g>
			<g id="shape96-21">
				<title>path2436</title>
				<path fill="#78749A" stroke="#78749A" stroke-miterlimit="3" d="M-410.898,416.837l-1.195-2.573l-0.091-0.184v-0.181v-3.122
					v-0.184l0.091-0.185l0.095-0.181l0.091-0.092l0.185-0.184l0.181-0.092h0.185l0.184-0.093h4.222l0.185,0.093l3.214,0.918h-0.276
					h-5.785h-0.273l-0.275,0.091l-0.185,0.092l-0.276,0.185l-0.092,0.181l-0.181,0.277l-0.093,0.184v0.277v4.22v0.277
					L-410.898,416.837z"/>
			</g>
		</g>
		<g id="shape97-23" transform="translate(3.88735,0)">
			<title>path2438</title>
			<path fill="#FFFFFF" stroke="#78749A" stroke-width="1.5" stroke-miterlimit="3" d="M-413.5,408.086h5.78
				c0.736,0,1.377,0.55,1.377,1.283v4.224c0,0.826-0.641,1.378-1.377,1.378h-5.78c-0.737,0-1.378-0.552-1.378-1.378v-4.224
				C-414.878,408.636-414.237,408.086-413.5,408.086z"/>
		</g>
	</g>
	<g id="group98-25" transform="translate(452.051,-316.66)">
		<title>工作表.98</title>
		<g id="group99-26" transform="translate(5.9952E-015,-2.69124)">
			<title>g2432</title>
			<g id="shape100-27">
				<title>path2434</title>
				<path fill="#78749A" stroke="#78749A" stroke-miterlimit="3" d="M-374.11,395.641l-1.194-2.572l-0.092-0.185v-0.181v-3.122
					v-0.184l0.093-0.185l0.093-0.181l0.091-0.092l0.185-0.184l0.181-0.092h0.185l0.185-0.093h4.22l0.186,0.093l3.214,0.917h-0.275
					h-5.785h-0.273l-0.276,0.092l-0.185,0.092l-0.275,0.184l-0.092,0.181l-0.182,0.276l-0.092,0.184v0.276v4.221v0.276
					L-374.11,395.641z"/>
			</g>
			<g id="shape101-29">
				<title>path2436</title>
				<path fill="#78749A" stroke="#78749A" stroke-miterlimit="3" d="M-374.11,395.641l-1.194-2.572l-0.092-0.185v-0.181v-3.122
					v-0.184l0.093-0.185l0.093-0.181l0.091-0.092l0.185-0.184l0.181-0.092h0.185l0.185-0.093h4.22l0.186,0.093l3.214,0.917h-0.275
					h-5.785h-0.273l-0.276,0.092l-0.185,0.092l-0.275,0.184l-0.092,0.181l-0.182,0.276l-0.092,0.184v0.276v4.221v0.276
					L-374.11,395.641z"/>
			</g>
		</g>
		<g id="shape102-31" transform="translate(3.88735,0)">
			<title>path2438</title>
			<path fill="#FFFFFF" stroke="#78749A" stroke-width="1.5" stroke-miterlimit="3" d="M-376.712,386.89h5.781
				c0.735,0,1.377,0.55,1.377,1.284v4.224c0,0.826-0.642,1.378-1.377,1.378h-5.781c-0.737,0-1.378-0.552-1.378-1.378v-4.224
				C-378.09,387.44-377.449,386.89-376.712,386.89z"/>
		</g>
	</g>
	<g id="group103-33" transform="translate(460.63,-264.835)">
		<title>工作表.103</title>
		<g id="group104-34" transform="translate(5.9952E-015,-2.69124)">
			<title>g2432</title>
			<g id="shape105-35">
				<title>path2434</title>
				<path fill="#78749A" stroke="#78749A" stroke-miterlimit="3" d="M-380.055,359.724l-1.194-2.572l-0.093-0.184v-0.182v-3.122
					v-0.184l0.093-0.185l0.093-0.182l0.092-0.092l0.184-0.184l0.182-0.092h0.184l0.185-0.094h4.221l0.184,0.094l3.215,0.916h-0.276
					h-5.783h-0.273l-0.277,0.094l-0.183,0.092l-0.277,0.184l-0.091,0.182l-0.182,0.276l-0.093,0.185v0.275v4.221v0.275
					L-380.055,359.724z"/>
			</g>
			<g id="shape106-37">
				<title>path2436</title>
				<path fill="#78749A" stroke="#78749A" stroke-miterlimit="3" d="M-380.055,359.724l-1.194-2.572l-0.093-0.184v-0.182v-3.122
					v-0.184l0.093-0.185l0.093-0.182l0.092-0.092l0.184-0.184l0.182-0.092h0.184l0.185-0.094h4.221l0.184,0.094l3.215,0.916h-0.276
					h-5.783h-0.273l-0.277,0.094l-0.183,0.092l-0.277,0.184l-0.091,0.182l-0.182,0.276l-0.093,0.185v0.275v4.221v0.275
					L-380.055,359.724z"/>
			</g>
		</g>
		<g id="shape107-39" transform="translate(3.88735,0)">
			<title>path2438</title>
			<path fill="#FFFFFF" stroke="#78749A" stroke-width="1.5" stroke-miterlimit="3" d="M-382.656,350.974h5.779
				c0.736,0,1.377,0.55,1.377,1.283v4.225c0,0.826-0.641,1.378-1.377,1.378h-5.779c-0.737,0-1.379-0.552-1.379-1.378v-4.225
				C-384.035,351.523-383.393,350.974-382.656,350.974z"/>
		</g>
	</g>
	<g id="group108-41" transform="translate(542.319,-260.114)">
		<title>工作表.108</title>
		<g id="group109-42" transform="translate(5.9952E-015,-2.69124)">
			<title>g2432</title>
			<g id="shape110-43">
				<title>path2434</title>
				<path fill="#78749A" stroke="#78749A" stroke-miterlimit="3" d="M-436.669,356.452l-1.194-2.572l-0.092-0.184v-0.182v-3.122
					v-0.185l0.092-0.184l0.092-0.182l0.093-0.092l0.185-0.184l0.18-0.092h0.185l0.186-0.093h4.221l0.184,0.093l3.214,0.917h-0.276
					h-5.783h-0.273l-0.275,0.093l-0.185,0.092l-0.276,0.185l-0.092,0.181l-0.182,0.276l-0.093,0.185v0.276v4.22v0.277
					L-436.669,356.452z"/>
			</g>
			<g id="shape111-45">
				<title>path2436</title>
				<path fill="#78749A" stroke="#78749A" stroke-miterlimit="3" d="M-436.669,356.452l-1.194-2.572l-0.092-0.184v-0.182v-3.122
					v-0.185l0.092-0.184l0.092-0.182l0.093-0.092l0.185-0.184l0.18-0.092h0.185l0.186-0.093h4.221l0.184,0.093l3.214,0.917h-0.276
					h-5.783h-0.273l-0.275,0.093l-0.185,0.092l-0.276,0.185l-0.092,0.181l-0.182,0.276l-0.093,0.185v0.276v4.22v0.277
					L-436.669,356.452z"/>
			</g>
		</g>
		<g id="shape112-47" transform="translate(3.88735,0)">
			<title>path2438</title>
			<path fill="#FFFFFF" stroke="#78749A" stroke-width="1.5" stroke-miterlimit="3" d="M-439.271,347.702h5.779
				c0.738,0,1.379,0.549,1.379,1.282v4.225c0,0.825-0.641,1.378-1.379,1.378h-5.779c-0.736,0-1.378-0.553-1.378-1.378v-4.225
				C-440.649,348.251-440.007,347.702-439.271,347.702z"/>
		</g>
	</g>
	<g id="group113-49" transform="translate(563.579,-307.09)">
		<title>工作表.113</title>
		<g id="group114-50" transform="translate(5.9952E-015,-2.69124)">
			<title>g2432</title>
			<g id="shape115-51">
				<title>path2434</title>
				<path fill="#78749A" stroke="#78749A" stroke-miterlimit="3" d="M-451.402,389.008l-1.194-2.572l-0.093-0.185v-0.181v-3.122
					v-0.184l0.093-0.184l0.092-0.182l0.092-0.092l0.185-0.184l0.182-0.091h0.185l0.185-0.093h4.221l0.185,0.093l3.214,0.917h-0.276
					h-5.785h-0.272l-0.275,0.092l-0.186,0.092l-0.275,0.184l-0.092,0.182l-0.182,0.276l-0.093,0.185v0.276v4.221v0.276
					L-451.402,389.008z"/>
			</g>
			<g id="shape116-53">
				<title>path2436</title>
				<path fill="#78749A" stroke="#78749A" stroke-miterlimit="3" d="M-451.402,389.008l-1.194-2.572l-0.093-0.185v-0.181v-3.122
					v-0.184l0.093-0.184l0.092-0.182l0.092-0.092l0.185-0.184l0.182-0.091h0.185l0.185-0.093h4.221l0.185,0.093l3.214,0.917h-0.276
					h-5.785h-0.272l-0.275,0.092l-0.186,0.092l-0.275,0.184l-0.092,0.182l-0.182,0.276l-0.093,0.185v0.276v4.221v0.276
					L-451.402,389.008z"/>
			</g>
		</g>
		<g id="shape117-55" transform="translate(3.88735,0)">
			<title>path2438</title>
			<path fill="#FFFFFF" stroke="#78749A" stroke-width="1.5" stroke-miterlimit="3" d="M-454.005,380.258h5.781
				c0.736,0,1.378,0.55,1.378,1.283v4.225c0,0.825-0.642,1.377-1.378,1.377h-5.781c-0.735,0-1.377-0.552-1.377-1.377v-4.225
				C-455.383,380.808-454.742,380.258-454.005,380.258z"/>
		</g>
	</g>
	<g id="group127-57" transform="translate(504.592,-288.634)">
		<title>工作表.127</title>
		<g id="shape123-58" transform="translate(-586.214,595.276) rotate(-90)">
			<title>平行四边形</title>
			<v:userDefs>
				<v:ud  v:nameU="visVersion" v:val="VT0(15):26" v:prompt=""></v:ud>
			</v:userDefs>
			<path fill="#78749A" stroke="#78749A" stroke-miterlimit="3" d="M220.924,177.188h9.737l1.391-2.784h-9.736L220.924,177.188z"/>
		</g>
		<g id="shape125-63" transform="translate(-562.496,559.029) rotate(-90) scale(-1,1)">
			<title>平行四边形.125</title>
			<v:userDefs>
				<v:ud  v:nameU="visVersion" v:val="VT0(15):26" v:prompt=""></v:ud>
			</v:userDefs>
			<path fill="#C5C2D3" stroke="#78749A" stroke-miterlimit="3" d="M-195.804,160.751h9.736l1.391-7.281h-9.737L-195.804,160.751z"
				/>
		</g>
		<g id="shape126-68" transform="translate(-79.8082,-26.0676) rotate(-10.9) scale(-1,1)">
			<title>平行四边形.126</title>
			<v:userDefs>
				<v:ud  v:nameU="visVersion" v:val="VT0(15):26" v:prompt=""></v:ud>
			</v:userDefs>
			<path fill="#D7D6E0" stroke="#78749A" stroke-miterlimit="3" d="M389.719,321.223l7.499,0l2.333-1.83l-7.5,0L389.719,321.223z"/>
		</g>
	</g>
</g>
</svg>
