<?xml version="1.0" encoding="UTF-8" standalone="no"?>
<!-- Created with Inkscape (http://www.inkscape.org/) -->
<svg
   xmlns:dc="http://purl.org/dc/elements/1.1/"
   xmlns:cc="http://web.resource.org/cc/"
   xmlns:rdf="http://www.w3.org/1999/02/22-rdf-syntax-ns#"
   xmlns:svg="http://www.w3.org/2000/svg"
   xmlns="http://www.w3.org/2000/svg"
   xmlns:sodipodi="http://sodipodi.sourceforge.net/DTD/sodipodi-0.dtd"
   xmlns:inkscape="http://www.inkscape.org/namespaces/inkscape"
   width="54.396999"
   height="43.124001"
   id="svg2459"
   sodipodi:version="0.32"
   inkscape:version="0.45.1"
   version="1.0"
   sodipodi:docbase="C:\Documents and Settings\hz08263\Desktop"
   sodipodi:docname="subnet.svg"
   inkscape:output_extension="org.inkscape.output.svg.inkscape">
  <defs
     id="defs2461">
    <linearGradient
       id="id2"
       gradientUnits="userSpaceOnUse"
       x1="3906"
       y1="5807"
       x2="3987"
       y2="5888">
   <stop
   offset="0"
   style="stop-color:#FFFFFF"
   id="stop2415" />

   <stop
   offset="0.588235"
   style="stop-color:#E4E4ED"
   id="stop2417" />

   <stop
   offset="1"
   style="stop-color:#797196"
   id="stop2419" />

  </linearGradient>
    <linearGradient
       id="id4"
       gradientUnits="userSpaceOnUse"
       href="#id2"
       x1="4120"
       y1="5895"
       x2="4201"
       y2="5976">
  </linearGradient>
    <linearGradient
       id="id3"
       gradientUnits="userSpaceOnUse"
       href="#id2"
       x1="3954"
       y1="5974"
       x2="4035"
       y2="6055">
  </linearGradient>
    <linearGradient
       id="id0"
       gradientUnits="userSpaceOnUse"
       x1="4341"
       y1="6225"
       x2="3723"
       y2="5607">
   <stop
   offset="0"
   style="stop-color:#A9A9C8"
   id="stop2399" />

   <stop
   offset="0.25098"
   style="stop-color:#C9C9DA"
   id="stop2401" />

   <stop
   offset="1"
   style="stop-color:#FFFFFF"
   id="stop2403" />

   <stop
   offset="1"
   style="stop-color:#FFFFFF"
   id="stop2405" />

  </linearGradient>
    <linearGradient
       id="id1"
       gradientUnits="userSpaceOnUse"
       x1="4398"
       y1="6123"
       x2="3677"
       y2="5716">
   <stop
   offset="0"
   style="stop-color:#D1D4DA"
   id="stop2408" />

   <stop
   offset="1"
   style="stop-color:#FFFFFF"
   id="stop2410" />

   <stop
   offset="1"
   style="stop-color:#FFFFFF"
   id="stop2412" />

  </linearGradient>
  </defs>
  <sodipodi:namedview
     id="base"
     pagecolor="#ffffff"
     bordercolor="#666666"
     borderopacity="1.0"
     gridtolerance="10000"
     guidetolerance="10"
     objecttolerance="10"
     inkscape:pageopacity="0.0"
     inkscape:pageshadow="2"
     inkscape:zoom="0.7"
     inkscape:cx="375"
     inkscape:cy="62.857143"
     inkscape:document-units="px"
     inkscape:current-layer="layer1"
     width="54.397px"
     height="43.124px"
     inkscape:window-width="1024"
     inkscape:window-height="721"
     inkscape:window-x="-4"
     inkscape:window-y="-4" />
  <metadata
     id="metadata2464">
    <rdf:RDF>
      <cc:Work
         rdf:about="">
        <dc:format>image/svg+xml</dc:format>
        <dc:type
           rdf:resource="http://purl.org/dc/dcmitype/StillImage" />
      </cc:Work>
    </rdf:RDF>
  </metadata>
  <g
     inkscape:label="Layer 1"
     inkscape:groupmode="layer"
     id="layer1">
    <g
       style="fill-rule:evenodd"
       id="Í¼²ã_x0020_1"
       transform="matrix(8.9996958e-2,0,0,8.9996958e-2,-336.07716,-511.62536)">
  <path
   class="fil0"
   d="M 4275,6029 C 4346,6159 4176,6148 4124,6138 C 4068,6181 3997,6167 3969,6124 C 3924,6163 3787,6169 3815,6052 C 3758,6023 3730,5922 3829,5879 C 3796,5794 3909,5748 3969,5793 C 3997,5692 4120,5716 4149,5799 C 4219,5755 4363,5821 4275,5885 C 4360,5928 4360,6000 4275,6029 L 4275,6029 z "
   id="path2424"
   style="fill:#78749a" />

  <path
   class="fil1"
   d="M 4266,6012 C 4337,6141 4167,6131 4115,6121 C 4059,6164 3988,6150 3960,6107 C 3915,6146 3778,6152 3806,6035 C 3749,6006 3721,5905 3820,5862 C 3787,5777 3900,5731 3960,5776 C 3988,5675 4111,5699 4140,5782 C 4210,5738 4354,5804 4266,5868 C 4351,5911 4351,5983 4266,6012 L 4266,6012 z "
   id="path2426"
   style="fill:url(#id1)" />

  <path
   class="fil2 str0"
   d="M 4270,6010 C 4331,6133 4172,6130 4116,6120 C 4057,6164 3992,6157 3962,6113 C 3915,6153 3782,6133 3795,6024 C 3735,5994 3704,5876 3808,5832 C 3773,5745 3885,5704 3949,5750 C 3976,5667 4099,5672 4130,5757 C 4204,5712 4344,5791 4277,5859 C 4317,5880 4360,5981 4270,6010 L 4270,6010 z "
   id="path2428"
   style="fill:url(#id0);stroke:#b1b5bb;stroke-width:11;stroke-linejoin:round" />

  <path
   class="fil3 str1"
   d="M 3949,5843 L 4145,5933 L 3975,6037 L 3949,5843 z "
   id="path2430"
   style="fill:none;stroke:#78749a;stroke-width:7;stroke-dasharray:14, 7" />

  <g
   id="g2432">
   <path
   class="fil0 str2"
   d="M 3949,6043 L 3936,6015 L 3935,6013 L 3935,6011 L 3935,5977 L 3935,5975 L 3936,5973 L 3937,5971 L 3938,5970 L 3940,5968 L 3942,5967 L 3944,5967 L 3946,5966 L 3992,5966 L 3994,5967 L 4029,5977 L 4026,5977 L 3963,5977 L 3960,5977 L 3957,5978 L 3955,5979 L 3952,5981 L 3951,5983 L 3949,5986 L 3948,5988 L 3948,5991 L 3948,6037 L 3948,6040 L 3949,6043 z "
   id="path2434"
   style="fill:#78749a;stroke:#78749a;stroke-width:7;stroke-linejoin:bevel" />

   <path
   class="fil0 str2"
   d="M 3949,6043 L 3936,6015 L 3935,6013 L 3935,6011 L 3935,5977 L 3935,5975 L 3936,5973 L 3937,5971 L 3938,5970 L 3940,5968 L 3942,5967 L 3944,5967 L 3946,5966 L 3992,5966 L 3994,5967 L 4029,5977 L 4026,5977 L 3963,5977 L 3960,5977 L 3957,5978 L 3955,5979 L 3952,5981 L 3951,5983 L 3949,5986 L 3948,5988 L 3948,5991 L 3948,6037 L 3948,6040 L 3949,6043 z "
   id="path2436"
   style="fill:#78749a;stroke:#78749a;stroke-width:7;stroke-linejoin:bevel" />

  </g>

  <path
   class="fil4 str2"
   d="M 3963,5977 L 4026,5977 C 4034,5977 4041,5983 4041,5991 L 4041,6037 C 4041,6046 4034,6052 4026,6052 L 3963,6052 C 3955,6052 3948,6046 3948,6037 L 3948,5991 C 3948,5983 3955,5977 3963,5977 z "
   id="path2438"
   style="fill:url(#id3);stroke:#78749a;stroke-width:7;stroke-linejoin:bevel" />

  <g
   id="g2440">
   <path
   class="fil0 str2"
   d="M 4116,5964 L 4102,5936 L 4101,5934 L 4101,5932 L 4101,5898 L 4101,5896 L 4102,5894 L 4103,5892 L 4104,5891 L 4106,5889 L 4108,5888 L 4110,5888 L 4112,5888 L 4158,5888 L 4160,5888 L 4195,5898 L 4192,5898 L 4129,5898 L 4126,5898 L 4123,5899 L 4121,5900 L 4119,5902 L 4117,5904 L 4116,5907 L 4115,5910 L 4114,5913 L 4114,5959 L 4115,5962 L 4116,5964 z "
   id="path2442"
   style="fill:#78749a;stroke:#78749a;stroke-width:7;stroke-linejoin:bevel" />

   <path
   class="fil0 str2"
   d="M 4116,5964 L 4102,5936 L 4101,5934 L 4101,5932 L 4101,5898 L 4101,5896 L 4102,5894 L 4103,5892 L 4104,5891 L 4106,5889 L 4108,5888 L 4110,5888 L 4112,5888 L 4158,5888 L 4160,5888 L 4195,5898 L 4192,5898 L 4129,5898 L 4126,5898 L 4123,5899 L 4121,5900 L 4119,5902 L 4117,5904 L 4116,5907 L 4115,5910 L 4114,5913 L 4114,5959 L 4115,5962 L 4116,5964 z "
   id="path2444"
   style="fill:#78749a;stroke:#78749a;stroke-width:7;stroke-linejoin:bevel" />

  </g>

  <path
   class="fil5 str2"
   d="M 4129,5898 L 4192,5898 C 4201,5898 4207,5905 4207,5913 L 4207,5959 C 4207,5967 4201,5973 4192,5973 L 4129,5973 C 4121,5973 4114,5967 4114,5959 L 4114,5913 C 4114,5905 4121,5898 4129,5898 z "
   id="path2446"
   style="fill:url(#id4);stroke:#78749a;stroke-width:7;stroke-linejoin:bevel" />

  <g
   id="g2448">
   <path
   class="fil0 str2"
   d="M 3902,5877 L 3888,5848 L 3888,5846 L 3887,5844 L 3887,5811 L 3888,5808 L 3888,5806 L 3889,5805 L 3890,5803 L 3892,5802 L 3894,5801 L 3896,5800 L 3898,5800 L 3944,5800 L 3946,5800 L 3981,5810 L 3978,5810 L 3915,5810 L 3912,5810 L 3909,5811 L 3907,5813 L 3905,5814 L 3903,5817 L 3902,5819 L 3901,5822 L 3900,5825 L 3900,5871 L 3901,5874 L 3902,5877 z "
   id="path2450"
   style="fill:#78749a;stroke:#78749a;stroke-width:7;stroke-linejoin:bevel" />

   <path
   class="fil0 str2"
   d="M 3902,5877 L 3888,5848 L 3888,5846 L 3887,5844 L 3887,5811 L 3888,5808 L 3888,5806 L 3889,5805 L 3890,5803 L 3892,5802 L 3894,5801 L 3896,5800 L 3898,5800 L 3944,5800 L 3946,5800 L 3981,5810 L 3978,5810 L 3915,5810 L 3912,5810 L 3909,5811 L 3907,5813 L 3905,5814 L 3903,5817 L 3902,5819 L 3901,5822 L 3900,5825 L 3900,5871 L 3901,5874 L 3902,5877 z "
   id="path2452"
   style="fill:#78749a;stroke:#78749a;stroke-width:7;stroke-linejoin:bevel" />

  </g>

  <path
   class="fil6 str2"
   d="M 3915,5810 L 3978,5810 C 3987,5810 3993,5817 3993,5825 L 3993,5871 C 3993,5879 3987,5886 3978,5886 L 3915,5886 C 3907,5886 3900,5879 3900,5871 L 3900,5825 C 3900,5817 3907,5810 3915,5810 z "
   id="path2454"
   style="fill:url(#id2);stroke:#78749a;stroke-width:7;stroke-linejoin:bevel" />

 </g>
  </g>
</svg>
